<?xml version="1.0" encoding="utf-8"?>
<!-- Generator: Adobe Illustrator 21.0.0, SVG Export Plug-In . SVG Version: 6.00 Build 0)  -->
<svg version="1.1" id="Слой_1" xmlns="http://www.w3.org/2000/svg" xmlns:xlink="http://www.w3.org/1999/xlink" x="0px" y="0px"
	 viewBox="0 0 233.5 54" style="enable-background:new 0 0 233.5 54;" xml:space="preserve">
<style type="text/css">
	.st0{fill:none;}
	.st1{fill:#00B0FF;}
	.st2{font-family:'CenturyGothic';}
	.st3{font-size:28.9977px;}
	.st4{fill:#2A2D47;}
	.st5{font-size:17.8447px;}
	.st6{letter-spacing:3.7;}
	.st7{fill:none;stroke:#00B0FF;stroke-width:2;stroke-miterlimit:10;}
	.st8{fill:#FFFFFF;}
</style>
<rect x="92.8" y="5.8" class="st0" width="127.1" height="23.6"/>
<text transform="matrix(1 0 0 1 92.8398 27.1313)" class="st1 st2 st3">Nurly</text>
<text transform="matrix(1 0 0 1 159.1398 27.1313)" class="st2 st3"> </text>
<text transform="matrix(1 0 0 1 166.5398 27.1313)" class="st4 st2 st3">Jol</text>
<rect x="93.7" y="35.2" class="st0" width="127.1" height="23.6"/>
<text transform="matrix(1.091 0 0 1 93.7305 48.3672)" class="st4 st2 st5 st6">Logistics</text>
<line class="st7" x1="95.1" y1="32.3" x2="142.8" y2="32.3"/>
<line class="st7" x1="155.7" y1="32.3" x2="202.6" y2="32.3"/>
<path id="луч_23_" class="st1" d="M51.6,10.9c0.8-0.1,1.7-0.2,2.6-0.2c0.9,0,1.7,0.1,2.6,0.2L54.1,0.7L51.6,10.9z"/>
<path id="луч_22_" class="st4" d="M67.2,36.2c-0.5,0.7-1.1,1.3-1.7,2s-1.3,1.2-2,1.7l9.1,5.4L67.2,36.2z"/>
<path id="луч_21_" class="st1" d="M44.7,39.8c-0.7-0.5-1.3-1.1-2-1.7s-1.2-1.3-1.7-2l-5.4,9.1L44.7,39.8z"/>
<path id="луч_20_" class="st4" d="M63.6,13.7c0.7,0.5,1.3,1.1,2,1.7c0.6,0.6,1.2,1.3,1.7,2l5.4-9.1L63.6,13.7z"/>
<path id="луч_19_" class="st1" d="M41.1,17.3c0.5-0.7,1.1-1.3,1.7-2c0.6-0.6,1.3-1.2,2-1.7l-9.1-5.4L41.1,17.3z"/>
<path id="луч_18_" class="st1" d="M38.3,29.3c-0.1-0.8-0.2-1.7-0.2-2.6s0.1-1.7,0.2-2.6L28,26.8L38.3,29.3z"/>
<path id="луч_17_" class="st4" d="M70,24.2c0.1,0.8,0.2,1.7,0.2,2.6s-0.1,1.7-0.2,2.6l10.2-2.6L70,24.2z"/>
<path id="луч_16_" class="st4" d="M56.7,42.6c-0.8,0.1-1.7,0.2-2.6,0.2c-0.9,0-1.7-0.1-2.6-0.2l2.6,10.2L56.7,42.6z"/>
<path id="правая_внешняя_2_" class="st4" d="M64.6,15.7c2.9,2.8,4.8,6.7,4.8,11.1c0,8.4-6.8,15.2-15.2,15.2
	c-0.9,0-1.8-0.1-2.6-0.2c0,0-1.1-0.3-1.1-1.1C50.4,40.6,54.1,21.9,64.6,15.7z"/>
<path id="левая_внешняя_2_" class="st1" d="M64.4,15.6c-2.7-2.5-6.3-4-10.3-4c-8.4,0-15.2,6.8-15.2,15.2
	c0,5.7,3.2,10.7,7.9,13.3c0,0,0.8,0.2,1-0.4C48.1,39.1,53.2,22.2,64.4,15.6z"/>
<path id="правая_внутреняя_1_" class="st8" d="M64,16.4c2.8,2.6,4.5,6.3,4.5,10.4c0,7.4-5.6,13.5-12.8,14.3
	c0,0-0.7,0.1-0.7-0.8S57.2,23.4,64,16.4z"/>
<path id="левая_внутреняя_1_" class="st8" d="M63.3,15.7c-2.5-2.1-5.7-3.3-9.1-3.3c-7.9,0-14.3,6.4-14.3,14.3
	c0,3.8,1.5,7.3,3.9,9.9c0,0,0.6,0.4,0.9-0.1C45,36,53.8,20.7,63.3,15.7z"/>
</svg>
