<svg id="Слой_1" data-name="Слой 1" xmlns="http://www.w3.org/2000/svg" viewBox="0 0 111 101"><defs><style>.cls-1,.cls-2,.cls-3,.cls-4{fill:none;stroke-miterlimit:10;}.cls-1{stroke:#acabab;}.cls-2{stroke:#2a2d47;}.cls-3{stroke:#00b0ff;}.cls-4{stroke:#000;}</style></defs><title>Монтажная область 1</title><polygon class="cls-1" points="14.55 59.12 15.91 61.97 18.96 62.43 16.75 64.65 17.27 67.79 14.55 66.31 11.83 67.79 12.35 64.65 10.14 62.43 13.19 61.97 14.55 59.12"/><polygon class="cls-1" points="61.56 59.12 62.92 61.97 65.96 62.43 63.76 64.65 64.28 67.79 61.56 66.31 58.83 67.79 59.35 64.65 57.15 62.43 60.2 61.97 61.56 59.12"/><polyline class="cls-2" points="18.44 28.21 13.75 14.53 57.15 14.53 57.15 28.25 4.94 28.25"/><line class="cls-2" x1="16.88" y1="24" x2="57.15" y2="24"/><polyline class="cls-3" points="78.34 16.07 84.37 20.09 94.42 8.03"/><path class="cls-4" d="M18.45,28.11C18.45,40,26.9,53.75,37.8,53.75S57.15,40,57.15,28.11"/><path class="cls-4" d="M24.44,53.85a97.25,97.25,0,0,0-10.11,3.43A21,21,0,0,0,1.06,77v23.46H75V77A21,21,0,0,0,61.69,57.27a70.21,70.21,0,0,0-10.11-3.43L37.93,83.68Z"/><path class="cls-4" d="M98.36.48H71.88V48.87H110.6V12.73Z"/><path class="cls-4" d="M94.66,41.23l12-3.52-2-7-12,3.52Z"/><polyline class="cls-4" points="32.17 58.29 37.48 58.29 43.85 58.29"/><line class="cls-4" x1="34.92" y1="58.29" x2="32.88" y2="72.5"/><line class="cls-4" x1="40.92" y1="58.29" x2="43.43" y2="71.66"/><line class="cls-1" x1="78.34" y1="34" x2="87" y2="34"/><line class="cls-1" x1="78.34" y1="39.33" x2="88.67" y2="39.33"/><line class="cls-1" x1="78.34" y1="43.9" x2="90.41" y2="43.9"/><line class="cls-4" x1="16.88" y1="88.75" x2="16.88" y2="100.48"/><line class="cls-4" x1="59.75" y1="88.75" x2="59.75" y2="100.48"/></svg>