<?xml version="1.0" encoding="utf-8"?>
<!-- Generator: Adobe Illustrator 21.0.0, SVG Export Plug-In . SVG Version: 6.00 Build 0)  -->
<svg version="1.1" id="Слой_1" xmlns="http://www.w3.org/2000/svg" xmlns:xlink="http://www.w3.org/1999/xlink" x="0px" y="0px"
	 viewBox="0 0 88 62" style="enable-background:new 0 0 88 62;" xml:space="preserve">
<style type="text/css">
	.st0{fill:none;stroke:#242845;stroke-miterlimit:10;}
	.st1{fill:none;stroke:#00B0FF;stroke-miterlimit:10;}
	.st2{fill:none;stroke:#969594;stroke-miterlimit:10;}
	.st3{fill:none;stroke:#969594;stroke-miterlimit:10;stroke-dasharray:3;}
</style>
<polyline class="st0" points="36.6,61 36.6,25.9 61.5,1 87.1,26.4 "/>
<line class="st0" x1="0.9" y1="27.5" x2="36.6" y2="27.5"/>
<polyline class="st0" points="46.5,61 46.5,28.2 76.9,28.2 76.9,61 "/>
<line class="st0" x1="46.5" y1="33.4" x2="76.9" y2="33.4"/>
<line class="st0" x1="46.5" y1="40" x2="76.9" y2="40"/>
<rect x="50.4" y="53.5" class="st1" width="7.6" height="7.6"/>
<rect x="57.9" y="53.5" class="st1" width="7.6" height="7.6"/>
<rect x="65.4" y="53.5" class="st1" width="7.6" height="7.6"/>
<rect x="61.6" y="45.9" class="st1" width="7.6" height="7.6"/>
<rect x="54.1" y="45.9" class="st1" width="7.6" height="7.6"/>
<rect x="50.8" y="19" class="st2" width="5.1" height="5.1"/>
<rect x="59.1" y="19" class="st2" width="5.1" height="5.1"/>
<rect x="67.4" y="19" class="st2" width="5.1" height="5.1"/>
<polyline class="st0" points="8.9,61 8.9,37.7 19.3,37.7 29.8,37.7 29.8,61 "/>
<line class="st0" x1="19.3" y1="61" x2="19.3" y2="37.7"/>
<line class="st0" x1="14.8" y1="46.4" x2="14.8" y2="52.9"/>
<line class="st0" x1="23.3" y1="46.4" x2="23.3" y2="52.9"/>
<line class="st3" x1="2.3" y1="32.1" x2="35.2" y2="32.1"/>
<polyline class="st0" points="70.7,7 87.1,7 87.1,61 0.9,61 0.9,7 52.3,7 "/>
</svg>
