<?xml version="1.0" encoding="utf-8"?>
<!-- Generator: Adobe Illustrator 21.0.0, SVG Export Plug-In . SVG Version: 6.00 Build 0)  -->
<svg version="1.1" id="Слой_1" xmlns="http://www.w3.org/2000/svg" xmlns:xlink="http://www.w3.org/1999/xlink" x="0px" y="0px"
	 viewBox="0 0 78.1 61.4" style="enable-background:new 0 0 78.1 61.4;" xml:space="preserve">
<style type="text/css">
	.st0{fill:none;stroke:#2A2D47;stroke-miterlimit:10;}
	.st1{fill:none;stroke:#969594;stroke-miterlimit:10;}
	.st2{fill:none;stroke:#00B0FF;stroke-miterlimit:10;}
</style>
<polygon class="st0" points="31.9,1.5 18.6,49.7 1,59.3 15.7,7.6 "/>
<line class="st0" x1="49.6" y1="48.3" x2="62.6" y2="0.9"/>
<line class="st1" x1="18.1" y1="9.7" x2="12.7" y2="29.6"/>
<line class="st1" x1="37.2" y1="18.1" x2="31.6" y2="37.9"/>
<line class="st1" x1="41.5" y1="13.3" x2="32.9" y2="44.6"/>
<g>
	<g>
		<path class="st2" d="M70,20.7c0.3-0.6,0.5-1.3,0.5-2c0-2.5-2-4.5-4.5-4.5c-2.5,0-4.5,2-4.5,4.5c0,0.7,0.2,1.4,0.5,2"/>
		<polyline class="st2" points="61.8,20.7 65.8,28.3 70,20.7 		"/>
		<circle class="st2" cx="66" cy="18.5" r="2.5"/>
	</g>
</g>
<g>
	<path class="st2" d="M18.9,38.4c0.3-0.6,0.5-1.3,0.5-2c0-2.5-2-4.5-4.5-4.5c-2.5,0-4.5,2-4.5,4.5c0,0.7,0.2,1.4,0.5,2"/>
	<polyline class="st2" points="10.7,38.3 14.7,46 18.9,38.3 	"/>
	<circle class="st2" cx="14.9" cy="36.1" r="2.5"/>
</g>
<polyline class="st0" points="32.2,60 49.6,48.3 62.6,59.2 77.4,8.8 62.6,0.9 46.6,8.7 32.2,60 18.6,49.7 "/>
<line class="st0" x1="46.6" y1="8.7" x2="31.9" y2="1.5"/>
</svg>
