<?xml version="1.0" encoding="utf-8"?>
<!-- Generator: Adobe Illustrator 21.0.0, SVG Export Plug-In . SVG Version: 6.00 Build 0)  -->
<svg version="1.1" id="Слой_1" xmlns="http://www.w3.org/2000/svg" xmlns:xlink="http://www.w3.org/1999/xlink" x="0px" y="0px"
	 viewBox="0 0 59.4 61.4" style="enable-background:new 0 0 59.4 61.4;" xml:space="preserve">
<style type="text/css">
	.st0{fill:none;stroke:#242845;stroke-miterlimit:10;}
	.st1{fill:none;stroke:#00B0FF;stroke-miterlimit:10;}
	.st2{fill:none;}
	.st3{fill:none;stroke:#969594;stroke-miterlimit:10;}
</style>
<polygon class="st0" points="58.8,8.5 29.8,0.7 0.8,8.5 0.8,52.9 29.8,60.7 58.7,52.3 "/>
<line class="st0" x1="29.8" y1="0.7" x2="29.8" y2="60.7"/>
<line class="st1" x1="19.4" y1="50.3" x2="19.4" y2="42.1"/>
<polyline class="st1" points="15.3,46.2 19.4,42.1 23.6,46.2 "/>
<polyline class="st0" points="40.1,3.8 40.1,29.7 42.2,31.7 45.3,29.7 48.4,31.7 50.5,29.7 50.5,6.3 "/>
<polyline class="st0" points="19.4,3.8 19.4,29.7 17.4,31.7 14.3,29.7 11.2,31.7 9.1,29.7 9.1,6.6 "/>
<line class="st3" x1="37.3" y1="52.3" x2="46.8" y2="49.6"/>
</svg>
