<?xml version="1.0" encoding="utf-8"?>
<!-- Generator: Adobe Illustrator 21.0.0, SVG Export Plug-In . SVG Version: 6.00 Build 0)  -->
<svg version="1.1" id="Слой_1" xmlns="http://www.w3.org/2000/svg" xmlns:xlink="http://www.w3.org/1999/xlink" x="0px" y="0px"
	 viewBox="0 0 74.9 61.4" style="enable-background:new 0 0 74.9 61.4;" xml:space="preserve">
<style type="text/css">
	.st0{fill:none;stroke:#242845;stroke-miterlimit:10;}
	.st1{fill:none;stroke:#969594;stroke-miterlimit:10;stroke-dasharray:3;}
	.st2{fill:none;stroke:#00B0FF;stroke-miterlimit:10;}
	.st3{fill:none;stroke:#969594;stroke-miterlimit:10;}
</style>
<rect x="0.8" y="22.2" class="st0" width="62.7" height="38.5"/>
<line class="st0" x1="5.5" y1="27.1" x2="27.7" y2="27.1"/>
<line class="st1" x1="6.5" y1="54.1" x2="33.4" y2="54.1"/>
<line class="st0" x1="40.4" y1="35.5" x2="57" y2="35.5"/>
<line class="st0" x1="45.3" y1="39.5" x2="57" y2="39.5"/>
<polygon class="st0" points="19.9,41.9 7.7,41.9 7.7,33.4 11.8,33.4 19.9,33.4 "/>
<line class="st0" x1="11.8" y1="41.9" x2="11.8" y2="33.4"/>
<line class="st0" x1="15.8" y1="33.4" x2="15.8" y2="41.9"/>
<line class="st0" x1="7.7" y1="37.5" x2="19.9" y2="37.5"/>
<circle class="st2" cx="45.3" cy="50.7" r="4.9"/>
<path class="st2" d="M50.2,46c0.5-0.1,1-0.2,1.5-0.2c2.7,0,4.9,2.2,4.9,4.9s-2.2,4.9-4.9,4.9c-0.5,0-1-0.1-1.5-0.2"/>
<polyline class="st3" points="11.8,19.6 11.8,0.7 74,0.7 74,38.3 66.2,38.3 "/>
<line class="st3" x1="15.3" y1="5.1" x2="26.9" y2="5.1"/>
<line class="st3" x1="11.8" y1="9.3" x2="74" y2="9.3"/>
<line class="st3" x1="11.8" y1="16.7" x2="74" y2="16.7"/>
</svg>
