<?xml version="1.0" encoding="utf-8"?>
<!-- Generator: Adobe Illustrator 21.0.0, SVG Export Plug-In . SVG Version: 6.00 Build 0)  -->
<svg version="1.1" id="Слой_1" xmlns="http://www.w3.org/2000/svg" xmlns:xlink="http://www.w3.org/1999/xlink" x="0px" y="0px"
	 viewBox="0 0 94.8 61.2" style="enable-background:new 0 0 94.8 61.2;" xml:space="preserve">
<style type="text/css">
	.st0{fill:none;stroke:#242845;stroke-miterlimit:10;}
	.st1{fill:none;stroke:#00B0FF;stroke-miterlimit:10;}
	.st2{fill:none;stroke:#969594;stroke-miterlimit:10;}
</style>
<path class="st0" d="M26,9.1L8.2,29.7c-1.2,1.4-3.1,1.4-4.3,0l-2.1-2.5c-1.2-1.4-1.2-3.6,0-5L19.5,1.6c1.2-1.4,3.1-1.4,4.3,0L26,4.1
	C27.1,5.5,27.1,7.8,26,9.1z"/>
<path class="st0" d="M68.6,9.1l-3.4,0.9c-4.5,1.2-9.2,0.1-12.8-3.1l0,0c-2.3-2-5.5-2.1-7.9-0.2l-4.7,3.7c-1.3,1-2,2.7-2,4.4v0
	c0,1.6-0.5,3.1-1.4,4.3v0c-0.6,0.8-0.7,2-0.1,2.8L37,23c1,1.5,2.9,1.8,4.2,0.7l0,0c1.8-1.4,3.2-3.3,4.1-5.6l1-2.4l5.6,2.5l21.8,21.6
	l12.7-10.1"/>
<line class="st0" x1="42.7" y1="8.1" x2="26" y2="9.1"/>
<path class="st0" d="M48.7,38l14,12.2c1.4,1.2,3.6,0.6,4.8-0.8l0,0c1.5-1.8,1-4.3-0.7-5.7l-7.9-6.1"/>
<path class="st0" d="M43.5,44.1l12.2,9.6c1.4,1.1,3.6,0.4,4.7-1.2l0,0c1.1-1.7,0.5-3.8-1-5l-5-4.6"/>
<path class="st0" d="M41.1,53.2l8.5,5c1.6,1,3.9,0.4,4.9-1.1l0,0c1.1-1.7,0.3-3.9-1.2-5.1l-5.4-4.3"/>
<path class="st0" d="M56.3,35.5l13.2,10.1c1.4,1.1,3.6,0.5,4.6-1l0,0c1.1-1.7,0.6-3.7-0.9-5.2L68,34.2"/>
<path class="st0" d="M39.6,55.8l-2.7,3.3c-1.5,1.8-4,1.9-5.5,0.2l0,0c-1.5-1.7-1.6-4.6-0.1-6.4l2.7-3.3c1.5-1.8,4-1.9,5.5-0.2l0,0
	C41.1,51.2,41.1,54,39.6,55.8z"/>
<path class="st0" d="M34.7,48.7L30.3,54c-1.5,1.8-4,1.9-5.5,0.2l0,0c-1.5-1.7-1.6-4.6-0.1-6.4l4.4-5.3c1.5-1.8,4-1.9,5.5-0.2l0,0
	C36.1,44,36.2,46.8,34.7,48.7z"/>
<path class="st0" d="M28,43.6l-4.4,5.3c-1.5,1.8-4,1.9-5.5,0.2l0,0c-1.5-1.7-1.6-4.6-0.1-6.4l4.4-5.3c1.5-1.8,4-1.9,5.5-0.2l0,0
	C29.4,38.9,29.5,41.8,28,43.6z"/>
<path class="st0" d="M22.4,37.5l-3.8,4.6c-1.5,1.8-3.9,2-5.4,0.3l0,0c-1.5-1.7-1.6-4.6-0.1-6.4l3.7-4.7c1.5-1.8,4-1.9,5.5-0.2l0,0
	C23.9,32.8,23.9,35.7,22.4,37.5z"/>
<line class="st0" x1="13.6" y1="34.8" x2="8.2" y2="29.7"/>
<path class="st0" d="M86.3,29.7L68.6,9.1c-1.2-1.4-1.2-3.6,0-5l2.1-2.5c1.2-1.4,3.1-1.4,4.3,0l17.7,20.6c1.2,1.4,1.2,3.6,0,5
	l-2.1,2.5C89.4,31.1,87.5,31.1,86.3,29.7z"/>
<circle class="st1" cx="20.8" cy="7.6" r="2.1"/>
<circle class="st1" cx="88.4" cy="24.7" r="2.1"/>
<line class="st2" x1="76.9" y1="19.3" x2="69.9" y2="24.8"/>
<line class="st2" x1="45.7" y1="35.5" x2="42.8" y2="33.4"/>
<line class="st2" x1="53.1" y1="32.2" x2="50.9" y2="30.5"/>
<line class="st2" x1="40.2" y1="41.7" x2="37.7" y2="39.8"/>
</svg>
