<?xml version="1.0" encoding="UTF-8" standalone="no"?>
<svg
   xmlns:dc="http://purl.org/dc/elements/1.1/"
   xmlns:cc="http://creativecommons.org/ns#"
   xmlns:rdf="http://www.w3.org/1999/02/22-rdf-syntax-ns#"
   xmlns:svg="http://www.w3.org/2000/svg"
   xmlns="http://www.w3.org/2000/svg"
   viewBox="0 0 83.333336 83.666664"
   height="83.666664"
   width="83.333336"
   xml:space="preserve"
   id="svg2"
   version="1.1"><metadata
     id="metadata8"><rdf:RDF><cc:Work
         rdf:about=""><dc:format>image/svg+xml</dc:format><dc:type
           rdf:resource="http://purl.org/dc/dcmitype/StillImage" /></cc:Work></rdf:RDF></metadata><defs
     id="defs6"><clipPath
       id="clipPath18"
       clipPathUnits="userSpaceOnUse"><path
         id="path16"
         d="M 0,0 H 62.5 V 62.75 H 0 Z" /></clipPath></defs><g
     transform="matrix(1.3333333,0,0,-1.3333333,0,83.666667)"
     id="g10"><g
       id="g12"><g
         clip-path="url(#clipPath18)"
         id="g14"><g
           transform="translate(1.1182,43.8418)"
           id="g20"><path
             id="path22"
             style="fill:none;stroke:#6c6e75;stroke-width:1;stroke-linecap:butt;stroke-linejoin:miter;stroke-miterlimit:10;stroke-dasharray:none;stroke-opacity:1"
             d="M 0,0 V 0 C 0,4.016 3.255,7.271 7.27,7.271 H 20.772" /></g><g
           transform="translate(61.3579,36.5718)"
           id="g24"><path
             id="path26"
             style="fill:none;stroke:#a9a9a8;stroke-width:1;stroke-linecap:butt;stroke-linejoin:miter;stroke-miterlimit:10;stroke-dasharray:3, 3;stroke-dashoffset:0;stroke-opacity:1"
             d="m 0,0 h -52.97 c -4.015,0 -7.27,3.255 -7.27,7.27" /></g><g
           transform="translate(61.3579,5.4131)"
           id="g28"><path
             id="path30"
             style="fill:none;stroke:#a9a9a8;stroke-width:1;stroke-linecap:butt;stroke-linejoin:miter;stroke-miterlimit:10;stroke-dasharray:3, 3;stroke-dashoffset:0;stroke-opacity:1"
             d="m 0,0 h -52.97 c -4.015,0 -7.27,3.256 -7.27,7.271" /></g><g
           transform="translate(1.1182,47.9966)"
           id="g32"><path
             id="path34"
             style="fill:none;stroke:#6c6e75;stroke-width:1;stroke-linecap:butt;stroke-linejoin:miter;stroke-miterlimit:10;stroke-dasharray:none;stroke-opacity:1"
             d="m 0,0 v -40.349 c 0,-3.527 2.86,-6.389 6.389,-6.389 H 60.24 V -7.271 H 7.27 C 3.255,-7.271 0,-4.015 0,0 Z" /></g><g
           transform="translate(61.3579,15.7998)"
           id="g36"><path
             id="path38"
             style="fill:none;stroke:#6c6e75;stroke-width:1;stroke-linecap:butt;stroke-linejoin:miter;stroke-miterlimit:10;stroke-dasharray:none;stroke-opacity:1"
             d="m 0,0 h -12.695 c -3.314,0 -6,2.687 -6,6 v 0.463 c 0,3.314 2.686,6 6,6 l 12.695,0 z" /></g><g
           transform="translate(53.0493,22.0313)"
           id="g40"><path
             id="path42"
             style="fill:none;stroke:#3eb6ea;stroke-width:1;stroke-linecap:butt;stroke-linejoin:miter;stroke-miterlimit:10;stroke-dasharray:none;stroke-opacity:1"
             d="m 0,0 c 0,-1.721 -1.396,-3.116 -3.116,-3.116 -1.721,0 -3.116,1.395 -3.116,3.116 0,1.721 1.395,3.116 3.116,3.116 C -1.396,3.116 0,1.721 0,0 Z" /></g><g
           transform="translate(18.7046,40.7261)"
           id="g44"><path
             id="path46"
             style="fill:none;stroke:#6c6e75;stroke-width:1;stroke-linecap:butt;stroke-linejoin:miter;stroke-miterlimit:10;stroke-dasharray:none;stroke-opacity:1"
             d="m 0,0 -0.549,0.549 17.082,17.082 -2.859,2.859 c -0.056,0.056 -0.148,0.056 -0.204,0 L -6.471,0.549 -5.922,0 Z" /></g><g
           transform="translate(44.25,55.2671)"
           id="g48"><path
             id="path50"
             style="fill:none;stroke:#6c6e75;stroke-width:1;stroke-linecap:butt;stroke-linejoin:miter;stroke-miterlimit:10;stroke-dasharray:none;stroke-opacity:1"
             d="m 0,0 13.992,-13.992 -0.549,-0.549 h 3.665 V 0 Z" /></g><g
           transform="translate(26.2256,55.2671)"
           id="g52"><path
             id="path54"
             style="fill:none;stroke:#6c6e75;stroke-width:1;stroke-linecap:butt;stroke-linejoin:miter;stroke-miterlimit:10;stroke-dasharray:none;stroke-opacity:1"
             d="m 0,0 h -17.837 c -4.016,0 -7.27,-3.255 -7.27,-7.271 0,-4.015 3.254,-7.27 7.27,-7.27 h 4.394 l -0.549,0.549 z" /></g><g
           transform="translate(48.8945,51.1123)"
           id="g56"><path
             id="path58"
             style="fill:none;stroke:#6c6e75;stroke-width:1;stroke-linecap:butt;stroke-linejoin:miter;stroke-miterlimit:10;stroke-dasharray:none;stroke-opacity:1"
             d="M 0,0 H 12.463" /></g><g
           transform="translate(49.6118,40.7261)"
           id="g60"><path
             id="path62"
             style="fill:none;stroke:#3eb6ea;stroke-width:1;stroke-linecap:butt;stroke-linejoin:miter;stroke-miterlimit:10;stroke-dasharray:none;stroke-opacity:1"
             d="m 0,0 0.321,0.321 -11.675,11.675 c -0.032,0.033 -0.085,0.033 -0.118,0 L -23.147,0.321 -22.826,0 Z" /></g><g
           transform="translate(57.6934,40.7261)"
           id="g64"><path
             id="path66"
             style="fill:none;stroke:#6c6e75;stroke-width:1;stroke-linecap:butt;stroke-linejoin:miter;stroke-miterlimit:10;stroke-dasharray:none;stroke-opacity:1"
             d="M 0,0 0.549,0.549 -19.393,20.49 c -0.056,0.056 -0.147,0.056 -0.203,0 L -39.538,0.549 -38.989,0 Z" /></g></g></g></g></svg>