<?xml version="1.0" encoding="utf-8"?>
<!-- Generator: Adobe Illustrator 21.0.0, SVG Export Plug-In . SVG Version: 6.00 Build 0)  -->
<svg version="1.1" id="Слой_1" xmlns="http://www.w3.org/2000/svg" xmlns:xlink="http://www.w3.org/1999/xlink" x="0px" y="0px"
	 viewBox="0 0 39 37" style="enable-background:new 0 0 39 37;" xml:space="preserve">
<style type="text/css">
	.st0{fill:none;stroke:#00B0FF;stroke-miterlimit:10;}
</style>
<rect x="0.7" y="0.9" class="st0" width="37.6" height="35"/>
<rect x="4.6" y="4.8" class="st0" width="29.8" height="6.5"/>
<circle class="st0" cx="6.6" cy="17.1" r="1.9"/>
<circle class="st0" cx="13.1" cy="17.1" r="1.9"/>
<circle class="st0" cx="19.5" cy="17.1" r="1.9"/>
<circle class="st0" cx="6.6" cy="23.6" r="1.9"/>
<circle class="st0" cx="13.1" cy="23.6" r="1.9"/>
<circle class="st0" cx="19.5" cy="23.6" r="1.9"/>
<circle class="st0" cx="6.6" cy="30.1" r="1.9"/>
<circle class="st0" cx="13.1" cy="30.1" r="1.9"/>
<circle class="st0" cx="19.5" cy="30.1" r="1.9"/>
<rect x="24.7" y="22.3" class="st0" width="9.1" height="9.1"/>
<rect x="24.7" y="15.2" class="st0" width="9.1" height="3.9"/>
<line class="st0" x1="29.3" y1="6.7" x2="31.9" y2="9.3"/>
<line class="st0" x1="31.9" y1="6.7" x2="29.3" y2="9.3"/>
<line class="st0" x1="24.1" y1="6.7" x2="26.7" y2="9.3"/>
<line class="st0" x1="26.7" y1="6.7" x2="24.1" y2="9.3"/>
<line class="st0" x1="18.9" y1="6.7" x2="21.5" y2="9.3"/>
<line class="st0" x1="21.5" y1="6.7" x2="18.9" y2="9.3"/>
<line class="st0" x1="13.7" y1="6.7" x2="16.3" y2="9.3"/>
<line class="st0" x1="16.3" y1="6.7" x2="13.7" y2="9.3"/>
</svg>
