<?xml version="1.0" encoding="utf-8"?>
<!-- Generator: Adobe Illustrator 21.0.0, SVG Export Plug-In . SVG Version: 6.00 Build 0)  -->
<svg version="1.1" id="Слой_1" xmlns="http://www.w3.org/2000/svg" xmlns:xlink="http://www.w3.org/1999/xlink" x="0px" y="0px"
	 viewBox="0 0 36.9 36.9" style="enable-background:new 0 0 36.9 36.9;" xml:space="preserve">
<style type="text/css">
	.st0{fill:none;stroke:#00B0FF;stroke-miterlimit:10;}
	.st1{fill:#00B0FF;}
</style>
<g>
	<path class="st0" d="M18.4,1C8.8,1,0.9,8.8,0.9,18.5S8.8,36,18.4,36c9.7,0,17.5-7.9,17.5-17.5S28.1,1,18.4,1z"/>
</g>
<line class="st0" x1="17.8" y1="6.1" x2="17.8" y2="20.7"/>
<line class="st0" x1="27.4" y1="18.7" x2="16.4" y2="18.7"/>
<line class="st0" x1="5" y1="18.6" x2="2" y2="18.6"/>
<line class="st0" x1="34.7" y1="18.6" x2="31.7" y2="18.6"/>
<line class="st0" x1="17.8" y1="5.1" x2="17.8" y2="2.1"/>
<line class="st0" x1="17.8" y1="34.8" x2="17.8" y2="31.8"/>
<g>
	<line class="st0" x1="29.9" y1="30" x2="28.9" y2="29"/>
	<line class="st0" x1="7.7" y1="8.1" x2="6.7" y2="7.1"/>
</g>
<g>
	<line class="st0" x1="6.8" y1="30.1" x2="7.8" y2="29.1"/>
	<line class="st0" x1="28.7" y1="8" x2="29.8" y2="6.9"/>
</g>
<circle class="st1" cx="17.8" cy="18.7" r="1.6"/>
</svg>
