<?xml version="1.0" encoding="utf-8"?>
<!-- Generator: Adobe Illustrator 21.1.0, SVG Export Plug-In . SVG Version: 6.00 Build 0)  -->
<svg version="1.1" id="Слой_1" xmlns="http://www.w3.org/2000/svg" xmlns:xlink="http://www.w3.org/1999/xlink" x="0px" y="0px"
	 viewBox="0 0 233.5 54" style="enable-background:new 0 0 233.5 54;" xml:space="preserve">
<style type="text/css">
	.st0{fill:#2A2D47;}
	.st1{fill:#6B6B6B;}
</style>
<g>
	<polygon class="st0" points="91.8,8.7 89.2,8.7 85,16.2 82.7,16.2 82.7,8.7 80.4,8.7 80.4,25.4 82.7,25.4 82.7,18.3 85,18.3 
		89.4,25.4 92.1,25.4 87,17.1 	"/>
	<path class="st0" d="M104.9,9.9c-0.9-0.8-2.2-1.1-3.9-1.1h-6v16.7h6c2.1,0,3.7-0.7,4.7-2.1c1-1.4,1.5-3.6,1.5-6.6
		c0-1.5-0.2-2.8-0.5-3.9C106.4,11.6,105.8,10.6,104.9,9.9z M101,23.3h-3.7V10.8h3.7c1.3,0,2.3,0.5,2.9,1.4c0.6,1,1,2.5,1,4.6
		C104.8,21.2,103.6,23.3,101,23.3z"/>
	<polygon class="st0" points="111.2,25.4 113.5,25.4 113.5,18.7 120.2,18.7 120.2,16.6 113.5,16.6 113.5,10.8 121.4,10.8 121.4,8.7 
		111.2,8.7 	"/>
	<rect x="124.2" y="17.7" class="st0" width="7.6" height="2.1"/>
	<path class="st0" d="M143.4,16.7c-0.6-0.3-1.6-0.6-2.7-0.9c-1.2-0.3-2-0.5-2.6-0.7c-0.5-0.2-0.8-0.5-1-0.8
		c-0.2-0.3-0.3-0.8-0.3-1.4c0-1.6,1.1-2.4,3.3-2.4c0.8,0,2.4,0.1,4.6,0.4l0.3,0l0.2-2l-0.2,0c-2.1-0.3-3.7-0.5-4.9-0.5
		c-3.6,0-5.5,1.5-5.5,4.6c0,1,0.2,1.8,0.5,2.4c0.4,0.6,0.9,1.1,1.7,1.5c0.7,0.4,1.7,0.7,3,0.9c0.9,0.2,1.7,0.4,2.2,0.6
		c0.5,0.2,0.8,0.4,1,0.7c0.2,0.3,0.3,0.7,0.3,1.3c0,2-1.1,3-3.2,3c-1.1,0-2.7-0.1-4.8-0.4l-0.2,0l-0.2,2l1.1,0.2
		c1.8,0.3,3.2,0.4,4.3,0.4c3.6,0,5.4-1.8,5.4-5.2c0-0.9-0.2-1.7-0.5-2.3C144.6,17.5,144.1,17.1,143.4,16.7z"/>
	<polygon class="st0" points="149.2,25.4 159.5,25.4 159.5,23.3 151.5,23.3 151.5,18 158.1,18 158.1,15.9 151.5,15.9 151.5,10.8 
		159.5,10.8 159.5,8.7 149.2,8.7 	"/>
	<path class="st0" d="M175,13.9c0-1.7-0.5-3-1.4-3.9c-0.9-0.8-2.3-1.3-4.1-1.3h-6.2v16.7h2.3v-6.2h4.2l2.9,6.2h2.5l-3.2-6.7
		C174,18,175,16.4,175,13.9z M172.6,14c0,2.1-1,3.2-3,3.2h-4v-6.3h3.9C171.6,10.8,172.6,11.8,172.6,14z"/>
	<polygon class="st0" points="184.2,23.3 183.3,23.3 179.5,8.7 177.1,8.7 181.5,25.4 185.9,25.4 190.3,8.7 187.9,8.7 	"/>
	<rect x="193.4" y="8.7" class="st0" width="2.3" height="16.7"/>
	<path class="st0" d="M203.6,11.2c1.1-0.8,3.5-0.8,6.6-0.2l0.3,0l0.1-2l-0.2,0c-3.8-0.8-6.7-0.7-8.3,0.5c-0.9,0.6-1.5,1.6-1.9,2.9
		c-0.3,1.2-0.5,2.8-0.5,4.8c0,2,0.2,3.6,0.5,4.8c0.3,1.2,1,2.2,1.9,2.8c0.9,0.6,2.3,1,4,1c1.2,0,2.7-0.2,4.3-0.5l0.2,0l-0.1-2
		l-0.3,0.1c-3.2,0.6-5.5,0.6-6.6-0.2c-0.6-0.4-1-1.1-1.2-1.9c-0.2-0.9-0.3-2.1-0.3-3.7c0-1.8,0.1-3.2,0.3-4.2
		C202.7,12.3,203.1,11.6,203.6,11.2z"/>
	<polygon class="st0" points="224.6,10.8 224.6,8.7 214.3,8.7 214.3,25.4 224.6,25.4 224.6,23.3 216.6,23.3 216.6,18 223.2,18 
		223.2,15.9 216.6,15.9 216.6,10.8 	"/>
</g>
<g>
	<g>
		<path class="st1" d="M81.7,44.9c-0.4-0.2-0.7-0.4-0.9-0.7c-0.2-0.3-0.2-0.7-0.2-1.3c0-0.3,0-0.6,0.1-0.8c0.1-0.2,0.2-0.4,0.3-0.5
			c0.1-0.1,0.4-0.4,0.8-0.6c-0.1-0.1-0.2-0.2-0.3-0.4c-0.1-0.2-0.1-0.4-0.1-0.6c0-0.1,0-0.3,0.1-0.4s0.2-0.4,0.4-0.8
			c-0.8-0.3-1.2-1-1.2-2.2c0-0.8,0.2-1.5,0.6-1.9c0.4-0.4,1.1-0.6,2-0.6c0.5,0,1,0.1,1.5,0.2l2.1-0.1v0.7h-1.5
			c0.4,0.3,0.5,0.9,0.5,1.7c0,0.9-0.2,1.5-0.6,1.9S84.2,39,83.2,39c-0.3,0-0.6,0-0.8-0.1c0,0,0,0.1-0.1,0.1c0,0.1,0,0.1-0.1,0.2
			c-0.1,0.1-0.1,0.3-0.1,0.4c0,0.1-0.1,0.2-0.1,0.3c0,0.3,0.1,0.5,0.3,0.6s0.5,0.1,1,0.1h0.7c0.6,0,1.1,0,1.5,0.1
			c0.4,0.1,0.7,0.3,0.9,0.6c0.2,0.3,0.3,0.7,0.3,1.3c0,0.8-0.2,1.4-0.7,1.8c-0.5,0.4-1.3,0.6-2.5,0.6C82.7,45.1,82.1,45,81.7,44.9z
			 M85,44.3c0.4-0.1,0.6-0.3,0.8-0.6s0.2-0.6,0.2-1.1c0-0.4-0.1-0.7-0.2-0.8c-0.1-0.2-0.3-0.3-0.6-0.4s-0.7-0.1-1.3-0.1l-1.7-0.1
			c-0.4,0.3-0.7,0.5-0.8,0.7c-0.1,0.2-0.2,0.5-0.2,0.8c0,0.4,0.1,0.8,0.2,1c0.1,0.2,0.4,0.4,0.7,0.5c0.3,0.1,0.8,0.2,1.4,0.2
			C84.2,44.5,84.6,44.4,85,44.3z M84.8,38c0.3-0.3,0.4-0.8,0.4-1.4c0-0.7-0.1-1.2-0.4-1.4c-0.3-0.3-0.8-0.4-1.4-0.4
			c-0.7,0-1.2,0.1-1.5,0.4s-0.4,0.8-0.4,1.4s0.1,1.2,0.4,1.4c0.3,0.3,0.8,0.4,1.5,0.4C84,38.4,84.5,38.3,84.8,38z"/>
		<path class="st1" d="M89.8,34.2h0.7v1.1c0.8-0.6,1.8-1,2.8-1.3v0.8c-0.4,0.1-0.9,0.2-1.3,0.4c-0.5,0.2-0.9,0.4-1.1,0.5L90.5,36
			v5.6h-0.7V34.2z"/>
		<path class="st1" d="M96.9,41.4c-0.4-0.2-0.7-0.6-0.9-1.2s-0.3-1.3-0.3-2.2c0-1,0.1-1.8,0.3-2.3c0.2-0.6,0.5-1,0.9-1.2
			c0.4-0.2,1-0.4,1.8-0.4c0.8,0,1.4,0.1,1.9,0.4c0.4,0.3,0.7,0.7,0.9,1.2c0.2,0.6,0.3,1.3,0.3,2.3c0,0.9-0.1,1.7-0.3,2.2
			c-0.2,0.5-0.5,0.9-0.9,1.2s-1.1,0.4-1.9,0.4C97.9,41.7,97.3,41.6,96.9,41.4z M100.2,40.8c0.3-0.2,0.5-0.5,0.7-0.9
			c0.1-0.4,0.2-1,0.2-1.9c0-0.9-0.1-1.5-0.2-2s-0.4-0.8-0.7-1c-0.3-0.2-0.8-0.3-1.4-0.3c-0.6,0-1.1,0.1-1.4,0.3
			c-0.3,0.2-0.6,0.5-0.7,1c-0.1,0.5-0.2,1.1-0.2,2c0,0.8,0.1,1.4,0.2,1.9c0.1,0.4,0.3,0.7,0.7,0.9c0.3,0.2,0.8,0.3,1.5,0.3
			C99.4,41.1,99.9,41,100.2,40.8z"/>
		<path class="st1" d="M106,41.4c-0.3-0.2-0.6-0.6-0.7-1.1s-0.2-1.3-0.2-2.2v-3.8h0.7V38c0,0.8,0,1.5,0.1,1.9
			c0.1,0.4,0.3,0.7,0.5,0.9c0.2,0.2,0.6,0.3,1.1,0.3c0.8,0,1.6-0.2,2.4-0.7v-6.2h0.7v7.4h-0.7V41c-0.4,0.2-0.8,0.4-1.1,0.5
			c-0.4,0.1-0.8,0.2-1.3,0.2C106.9,41.7,106.4,41.6,106,41.4z"/>
		<path class="st1" d="M114.4,34.2h0.7v0.6c0.8-0.5,1.6-0.7,2.4-0.7c0.9,0,1.6,0.3,2,0.9c0.4,0.6,0.6,1.5,0.6,2.8
			c0,0.9-0.1,1.7-0.3,2.2c-0.2,0.6-0.5,1-1,1.3c-0.5,0.3-1.1,0.4-1.9,0.4c-0.6,0-1.2-0.1-1.8-0.2v3.4h-0.7V34.2z M118.8,40.3
			c0.4-0.5,0.5-1.3,0.5-2.5c0-1.1-0.2-1.9-0.5-2.4c-0.3-0.5-0.8-0.7-1.4-0.7c-0.3,0-0.7,0.1-1.1,0.2c-0.4,0.1-0.7,0.2-1,0.4
			l-0.3,0.2v5.4c0.9,0.1,1.5,0.2,1.9,0.2C117.8,41.1,118.4,40.8,118.8,40.3z"/>
		<path class="st1" d="M129.1,41.4c-0.4-0.2-0.7-0.6-0.9-1.2s-0.3-1.3-0.3-2.2c0-1,0.1-1.8,0.3-2.3c0.2-0.6,0.5-1,0.9-1.2
			c0.4-0.2,1-0.4,1.8-0.4c0.8,0,1.4,0.1,1.9,0.4c0.4,0.3,0.7,0.7,0.9,1.2c0.2,0.6,0.3,1.3,0.3,2.3c0,0.9-0.1,1.7-0.3,2.2
			s-0.5,0.9-0.9,1.2s-1.1,0.4-1.9,0.4C130.2,41.7,129.6,41.6,129.1,41.4z M132.4,40.8c0.3-0.2,0.5-0.5,0.7-0.9
			c0.1-0.4,0.2-1,0.2-1.9c0-0.9-0.1-1.5-0.2-2s-0.4-0.8-0.7-1c-0.3-0.2-0.8-0.3-1.4-0.3c-0.6,0-1.1,0.1-1.4,0.3
			c-0.3,0.2-0.6,0.5-0.7,1c-0.1,0.5-0.2,1.1-0.2,2c0,0.8,0.1,1.4,0.2,1.9c0.1,0.4,0.3,0.7,0.7,0.9c0.3,0.2,0.8,0.3,1.5,0.3
			C131.6,41.1,132.1,41,132.4,40.8z"/>
		<path class="st1" d="M137.7,34.9h-1v-0.6h1v-0.8c0-0.7,0.1-1.2,0.2-1.6c0.1-0.4,0.3-0.7,0.6-0.8c0.3-0.2,0.7-0.2,1.1-0.2l1.4,0.1
			l0,0.6c-0.7,0-1.1,0-1.2,0c-0.1,0-0.2,0-0.3,0c-0.4,0-0.7,0.2-0.9,0.5c-0.1,0.3-0.2,0.8-0.2,1.5v0.8h2.3v0.6h-2.3v6.7h-0.7V34.9z"
			/>
		<path class="st1" d="M149.2,41.3c-0.4-0.3-0.7-0.7-0.9-1.2s-0.3-1.3-0.3-2.2c0-0.7,0.1-1.3,0.2-1.9c0.1-0.5,0.4-1,0.8-1.4
			c0.4-0.4,1-0.6,1.8-0.6c0.3,0,0.6,0,0.9,0c0.3,0,0.7,0.1,1.2,0.2l0,0.6c-0.8-0.1-1.4-0.1-1.8-0.1c-0.6,0-1.1,0.1-1.4,0.3
			c-0.3,0.2-0.6,0.5-0.7,1s-0.2,1.1-0.2,2c0,0.8,0.1,1.4,0.2,1.9c0.1,0.4,0.4,0.8,0.7,1c0.3,0.2,0.8,0.3,1.5,0.3l1.8-0.1l0,0.6
			c-0.9,0.1-1.6,0.2-2,0.2C150.3,41.7,149.7,41.6,149.2,41.3z"/>
		<path class="st1" d="M157,41.4c-0.4-0.2-0.7-0.6-0.9-1.2s-0.3-1.3-0.3-2.2c0-1,0.1-1.8,0.3-2.3c0.2-0.6,0.5-1,0.9-1.2
			c0.4-0.2,1-0.4,1.8-0.4c0.8,0,1.4,0.1,1.9,0.4c0.4,0.3,0.7,0.7,0.9,1.2c0.2,0.6,0.3,1.3,0.3,2.3c0,0.9-0.1,1.7-0.3,2.2
			s-0.5,0.9-0.9,1.2s-1.1,0.4-1.9,0.4C158.1,41.7,157.4,41.6,157,41.4z M160.3,40.8c0.3-0.2,0.5-0.5,0.7-0.9c0.1-0.4,0.2-1,0.2-1.9
			c0-0.9-0.1-1.5-0.2-2s-0.4-0.8-0.7-1c-0.3-0.2-0.8-0.3-1.4-0.3c-0.6,0-1.1,0.1-1.4,0.3c-0.3,0.2-0.6,0.5-0.7,1
			c-0.1,0.5-0.2,1.1-0.2,2c0,0.8,0.1,1.4,0.2,1.9c0.1,0.4,0.3,0.7,0.7,0.9c0.3,0.2,0.8,0.3,1.5,0.3C159.5,41.1,160,41,160.3,40.8z"
			/>
		<path class="st1" d="M165.3,34.2h0.7v0.6c0.8-0.5,1.6-0.7,2.4-0.7c0.9,0,1.6,0.3,1.9,0.8c0.3-0.2,0.7-0.4,1.3-0.5
			c0.5-0.2,1.1-0.2,1.6-0.2c0.6,0,1,0.1,1.4,0.4s0.6,0.6,0.7,1.1c0.1,0.5,0.2,1.2,0.2,2.2v3.8h-0.7v-3.8c0-0.8,0-1.4-0.1-1.9
			c-0.1-0.4-0.3-0.7-0.5-0.9c-0.2-0.2-0.6-0.3-1.1-0.3c-0.4,0-0.8,0.1-1.3,0.2c-0.4,0.1-0.7,0.2-0.9,0.3l-0.3,0.2
			c0.2,0.1,0.3,0.9,0.3,2.4v3.8h-0.7v-3.8c0-0.8,0-1.4-0.1-1.9c-0.1-0.4-0.2-0.7-0.5-0.9s-0.6-0.3-1-0.3c-0.4,0-0.8,0.1-1.2,0.2
			s-0.7,0.2-0.9,0.3l-0.3,0.2v6.2h-0.7V34.2z"/>
		<path class="st1" d="M179.1,34.2h0.7v0.6c0.8-0.5,1.6-0.7,2.4-0.7c0.9,0,1.6,0.3,2,0.9c0.4,0.6,0.6,1.5,0.6,2.8
			c0,0.9-0.1,1.7-0.3,2.2c-0.2,0.6-0.5,1-1,1.3c-0.5,0.3-1.1,0.4-1.9,0.4c-0.6,0-1.2-0.1-1.8-0.2v3.4h-0.7V34.2z M183.6,40.3
			c0.4-0.5,0.5-1.3,0.5-2.5c0-1.1-0.2-1.9-0.5-2.4c-0.3-0.5-0.8-0.7-1.4-0.7c-0.3,0-0.7,0.1-1.1,0.2c-0.4,0.1-0.7,0.2-1,0.4
			l-0.3,0.2v5.4c0.9,0.1,1.5,0.2,1.9,0.2C182.6,41.1,183.2,40.8,183.6,40.3z"/>
		<path class="st1" d="M188.3,41.2c-0.3-0.4-0.5-0.9-0.5-1.6s0.2-1.2,0.5-1.5c0.3-0.3,0.9-0.6,1.6-0.7l2.6-0.3v-0.7
			c0-0.6-0.1-1-0.4-1.3c-0.2-0.3-0.6-0.4-1-0.4c-0.4,0-0.8,0-1.2,0c-0.4,0-1,0.1-1.8,0.2l0-0.6c1.1-0.2,2-0.3,2.8-0.3
			c0.8,0,1.3,0.2,1.7,0.6c0.4,0.4,0.5,1,0.5,1.8v4.1c0,0.2,0.1,0.3,0.3,0.4c0.2,0.1,0.4,0.2,0.7,0.2l0,0.6c-0.4,0-0.7-0.1-1-0.2
			c-0.3-0.1-0.5-0.3-0.7-0.5c-0.9,0.4-1.9,0.6-2.9,0.6C189.1,41.7,188.6,41.5,188.3,41.2z M192.1,40.7l0.4-0.1v-2.8L190,38
			c-0.5,0-0.9,0.2-1.1,0.4c-0.2,0.2-0.3,0.6-0.3,1.1c0,1.1,0.4,1.6,1.3,1.6C190.6,41.1,191.4,40.9,192.1,40.7z"/>
		<path class="st1" d="M197.1,34.2h0.7v0.6c0.5-0.3,0.9-0.4,1.3-0.5c0.4-0.1,0.8-0.2,1.3-0.2c0.6,0,1.1,0.1,1.5,0.3s0.6,0.6,0.7,1.1
			c0.1,0.5,0.2,1.3,0.2,2.2v3.8H202v-3.8c0-0.8,0-1.4-0.1-1.8c-0.1-0.4-0.3-0.7-0.5-0.9c-0.2-0.2-0.6-0.3-1-0.3
			c-0.4,0-0.8,0.1-1.2,0.2c-0.4,0.1-0.7,0.2-1,0.3l-0.3,0.2v6.2h-0.7V34.2z"/>
		<path class="st1" d="M206.3,31.3h0.7v1h-0.7V31.3z M206.3,34.2h0.7v7.4h-0.7V34.2z"/>
		<path class="st1" d="M211.1,40.9c-0.4-0.6-0.7-1.5-0.7-2.8c0-1.4,0.2-2.4,0.7-3c0.5-0.7,1.3-1,2.3-1c1,0,1.7,0.3,2.1,0.8
			c0.5,0.6,0.7,1.4,0.7,2.6l0,0.6h-5.1c0,0.7,0.1,1.3,0.2,1.7c0.1,0.4,0.4,0.7,0.8,0.9c0.4,0.2,0.9,0.3,1.5,0.3c0.3,0,0.6,0,0.9,0
			s0.7,0,1-0.1l0.4,0l0,0.6c-1,0.1-1.9,0.2-2.6,0.2C212.3,41.7,211.5,41.4,211.1,40.9z M215.5,37.6c0-1-0.2-1.8-0.5-2.2
			c-0.3-0.4-0.9-0.7-1.6-0.7c-0.8,0-1.3,0.2-1.7,0.7c-0.4,0.5-0.6,1.2-0.6,2.2H215.5z"/>
		<path class="st1" d="M219.7,41.5l-0.4-0.1l0.1-0.6c1.1,0.2,2,0.3,2.5,0.3c0.7,0,1.2-0.1,1.5-0.4c0.3-0.2,0.5-0.6,0.5-1.1
			c0-0.4-0.1-0.7-0.2-0.8c-0.2-0.2-0.4-0.3-0.6-0.4c-0.3-0.1-0.6-0.1-1-0.2c-0.1,0-0.2,0-0.3-0.1c-0.6-0.1-1.1-0.2-1.5-0.4
			s-0.6-0.3-0.7-0.6c-0.1-0.2-0.2-0.6-0.2-1c0-0.8,0.2-1.3,0.7-1.6s1.1-0.5,2-0.5c0.8,0,1.5,0,2,0.1l0.4,0.1l0,0.6
			c-1-0.2-1.8-0.2-2.4-0.2c-0.7,0-1.2,0.1-1.5,0.3c-0.3,0.2-0.5,0.6-0.5,1c0,0.3,0.1,0.6,0.2,0.7c0.1,0.2,0.3,0.3,0.6,0.4
			c0.2,0.1,0.6,0.1,1.1,0.2c0.1,0,0.2,0,0.3,0.1c0.6,0.1,1.1,0.2,1.5,0.4c0.3,0.1,0.6,0.3,0.8,0.6c0.2,0.3,0.3,0.6,0.3,1.1
			c0,0.8-0.2,1.4-0.7,1.7c-0.5,0.3-1.2,0.5-2.1,0.5C221.2,41.7,220.5,41.7,219.7,41.5z"/>
	</g>
</g>
<g>
	<g>
		<polygon class="st0" points="49.6,44.9 59.4,26.9 69.3,8.9 67.8,8.9 48.8,43.6 		"/>
		<polygon class="st0" points="45.8,37.9 61.7,8.9 60.2,8.9 45,36.6 		"/>
		<polygon class="st0" points="42,31 54.1,8.9 52.6,8.9 41.2,29.7 		"/>
		<polygon class="st0" points="45,8.9 37.4,22.7 38.2,24.1 46.5,8.9 		"/>
		<polygon class="st0" points="37.4,8.9 33.6,15.8 34.4,17.1 38.9,8.9 		"/>
		<polygon class="st0" points="29.8,8.9 30.6,10.2 31.3,8.9 		"/>
	</g>
	<polygon class="st0" points="28.2,44.9 48,44.9 38.1,26.9 28.2,8.9 18.4,26.9 8.5,44.9 	"/>
</g>
</svg>
