<svg id="Слой_1" data-name="Слой 1" xmlns="http://www.w3.org/2000/svg" viewBox="0 0 98.5 101"><defs><style>.cls-1,.cls-3{fill:none;stroke-miterlimit:10;}.cls-1{stroke:#2a2d47;}.cls-2{fill:#acabab;}.cls-3{stroke:#00b0ff;}</style></defs><title>Монтажная область 1</title><path class="cls-1" d="M80,38.84a47,47,0,0,1,1.6,12.3,33.37,33.37,0,0,1-3.3,14.56A33.93,33.93,0,0,1,17,65.7a33.76,33.76,0,0,1,0-29.12A34,34,0,0,1,47.68,17.17c4.17,0,6.8.11,10.49,1.47"/><path class="cls-1" d="M67.9,54.44c0,5.19-.68,7.17-1.94,11.59C62.86,77.48,56.11,85.44,48.3,85.44S33.74,77.48,30.64,66A53.33,53.33,0,0,1,28.7,51.47a53.33,53.33,0,0,1,1.94-14.56C33.74,25.46,40.49,17.5,48.3,17.5"/><line class="cls-1" x1="71.01" y1="51.47" x2="81.92" y2="51.47"/><polyline class="cls-1" points="14.33 51.47 29.07 51.47 49.2 51.47 64.87 51.47"/><polyline class="cls-1" points="48.3 85.44 48.3 66.03 48.3 51.47 48.3 36.91 48.3 17.5"/><polyline class="cls-1" points="17.63 36.91 30.64 36.91 48.3 36.91 54.42 36.91"/><polyline class="cls-1" points="17.63 66.03 30.64 66.03 48.3 66.03 65.96 66.03 78.41 66.03"/><path class="cls-2" d="M54.06,100.9l-.45-2.06q1-.23,2.06-.49l.53,2Q55.13,100.67,54.06,100.9Z"/><path class="cls-2" d="M58.31,99.8l-.61-2c.68-.2,1.35-.42,2-.65l.69,2Q59.37,99.48,58.31,99.8Z"/><path class="cls-2" d="M62.47,98.36l-.77-2c.66-.26,1.31-.53,2-.81l.85,1.93Q63.5,98,62.47,98.36Z"/><path class="cls-2" d="M66.5,96.59l-.92-1.9q1-.47,1.89-1l1,1.86Q67.49,96.11,66.5,96.59Z"/><path class="cls-2" d="M70.38,94.51,69.31,92.7q.92-.54,1.81-1.11l1.13,1.78Q71.33,94,70.38,94.51Z"/><path class="cls-2" d="M74.08,92.14l-1.21-1.73q.87-.61,1.71-1.25l1.27,1.69Q75,91.51,74.08,92.14Z"/><path class="cls-2" d="M77.58,89.49l-1.34-1.63q.82-.67,1.61-1.37l1.41,1.58C78.71,88.55,78.15,89,77.58,89.49Z"/><path class="cls-2" d="M80.87,86.57,79.4,85q.76-.73,1.5-1.5L82.42,85C81.91,85.54,81.4,86.06,80.87,86.57Z"/><path class="cls-2" d="M83.91,83.4,82.33,82c.47-.53.93-1.06,1.38-1.61l1.63,1.34Q84.64,82.58,83.91,83.4Z"/><path class="cls-2" d="M86.69,80,85,78.73c.42-.56.84-1.13,1.24-1.71L88,78.23C87.57,78.83,87.14,79.43,86.69,80Z"/><path class="cls-2" d="M89.21,76.41l-1.78-1.14q.57-.89,1.1-1.8l1.82,1.06Q89.8,75.49,89.21,76.41Z"/><path class="cls-2" d="M91.43,72.63l-1.86-1c.33-.62.65-1.25,1-1.88l1.9.93Q91.95,71.67,91.43,72.63Z"/><path class="cls-2" d="M93.35,68.69l-1.93-.85q.42-1,.81-2l2,.78Q93.78,67.69,93.35,68.69Z"/><path class="cls-2" d="M94.94,64.61l-2-.69q.35-1,.65-2l2,.61C95.41,63.22,95.18,63.92,94.94,64.61Z"/><path class="cls-2" d="M96.22,60.41l-2-.54c.18-.68.34-1.37.49-2.05l2.06.45Q96.5,59.35,96.22,60.41Z"/><path class="cls-2" d="M97.16,56.12l-2.08-.37q.19-1,.33-2.09l2.09.28Q97.35,55,97.16,56.12Z"/><path class="cls-2" d="M3,48.15.88,47.86q.15-1.09.34-2.17l2.08.37Q3.11,47.1,3,48.15Z"/><path class="cls-2" d="M3.71,44l-2.06-.46q.24-1.07.51-2.13l2,.53Q3.94,43,3.71,44Z"/><path class="cls-2" d="M4.77,39.9l-2-.61q.32-1.06.68-2.09l2,.69Q5.08,38.89,4.77,39.9Z"/><path class="cls-2" d="M6.16,35.92l-2-.77q.4-1,.84-2L7,34Q6.54,34.93,6.16,35.92Z"/><path class="cls-2" d="M7.85,32.05,6,31.13q.48-1,1-2l1.86,1Q8.31,31.1,7.85,32.05Z"/><path class="cls-2" d="M9.84,28.34,8,27.26q.56-.95,1.15-1.87l1.78,1.14C10.57,27.13,10.2,27.72,9.84,28.34Z"/><path class="cls-2" d="M12.12,24.78l-1.73-1.2q.63-.91,1.29-1.78l1.68,1.27C12.94,23.63,12.53,24.2,12.12,24.78Z"/><path class="cls-2" d="M14.67,21.42,13,20.07q.7-.85,1.43-1.67L16,19.81Q15.34,20.6,14.67,21.42Z"/><path class="cls-2" d="M17.48,18.26,16,16.79q.76-.8,1.56-1.56L19,16.76Q18.21,17.49,17.48,18.26Z"/><path class="cls-2" d="M20.53,15.32l-1.41-1.57q.82-.74,1.67-1.43L22.13,14Q21.32,14.62,20.53,15.32Z"/><path class="cls-2" d="M23.79,12.64,22.52,11q.87-.66,1.78-1.29l1.21,1.73Q24.64,12,23.79,12.64Z"/><path class="cls-2" d="M27.26,10.22,26.12,8.44Q27,7.85,28,7.29l1.07,1.82Q28.15,9.65,27.26,10.22Z"/><path class="cls-2" d="M30.91,8.08l-1-1.86q1-.52,2-1l.93,1.9Q31.84,7.58,30.91,8.08Z"/><path class="cls-2" d="M34.72,6.23l-.85-1.93q1-.44,2-.84l.77,2C36,5.67,35.37,5.94,34.72,6.23Z"/><path class="cls-2" d="M38.66,4.68l-.69-2q1-.36,2.1-.68l.61,2Q39.66,4.33,38.66,4.68Z"/><path class="cls-2" d="M42.72,3.46l-.53-2q1.06-.28,2.14-.51L44.77,3Q43.73,3.19,42.72,3.46Z"/><path class="cls-3" d="M74.77,16.29a14.45,14.45,0,0,1,7.14,7.89,15.59,15.59,0,0,1-.28,10.88C80,39.22,76.34,45.92,67.9,54.48c-8.43-8.56-12.12-15.26-13.73-19.42a15.58,15.58,0,0,1-.27-10.89,15,15,0,0,1,20.87-7.88Z"/><circle class="cls-3" cx="67.9" cy="27.94" r="4.59"/></svg>