<?xml version="1.0" encoding="utf-8"?>
<!-- Generator: Adobe Illustrator 21.0.0, SVG Export Plug-In . SVG Version: 6.00 Build 0)  -->
<svg version="1.1" id="Слой_1" xmlns="http://www.w3.org/2000/svg" xmlns:xlink="http://www.w3.org/1999/xlink" x="0px" y="0px"
	 viewBox="0 0 68 63" style="enable-background:new 0 0 68 63;" xml:space="preserve">
<style type="text/css">
	.st0{fill:#2A2D47;}
	.st1{fill:none;stroke:#2A2D47;stroke-miterlimit:10;}
	.st2{fill:none;stroke:#ACABAB;stroke-miterlimit:10;}
	.st3{fill:none;stroke:#00B0FF;stroke-miterlimit:10;}
</style>
<path class="st0" d="M63.2,19.7h-1v-3.1h1V19.7z M63.2,13.5h-1v-3.1h1V13.5z"/>
<polygon class="st0" points="63.2,7.4 62.2,7.4 62.2,6.4 61.2,6.4 61.2,5.4 63.2,5.4 "/>
<path class="st0" d="M58.4,6.4h-2.9v-1h2.9V6.4z M52.6,6.4h-2.9v-1h2.9V6.4z M46.9,6.4H44v-1h2.9V6.4z M41.1,6.4h-2.9v-1h2.9V6.4z
	 M35.3,6.4h-2.9v-1h2.9V6.4z M29.6,6.4h-2.9v-1h2.9V6.4z M23.8,6.4h-2.9v-1h2.9V6.4z M18.1,6.4h-2.9v-1h2.9V6.4z M12.3,6.4H9.4v-1
	h2.9V6.4z"/>
<polygon class="st0" points="5.6,7.4 4.6,7.4 4.6,5.4 6.6,5.4 6.6,6.4 5.6,6.4 "/>
<path class="st0" d="M5.6,42.9h-1v-3h1V42.9z M5.6,37h-1v-3h1V37z M5.6,31.1h-1v-3h1V31.1z M5.6,25.1h-1v-3h1V25.1z M5.6,19.2h-1v-3
	h1V19.2z M5.6,13.3h-1v-3h1V13.3z"/>
<polygon class="st0" points="6.6,47.9 4.6,47.9 4.6,45.9 5.6,45.9 5.6,46.9 6.6,46.9 "/>
<path class="st0" d="M32.6,47.9h-3.3v-1h3.3V47.9z M26.1,47.9h-3.3v-1h3.3V47.9z M19.6,47.9h-3.3v-1h3.3V47.9z M13.1,47.9H9.8v-1
	h3.3V47.9z"/>
<path class="st1" d="M0.4,1.2V52h43.8v-8.4c1.8,1.6,4.3,2.7,6.9,2.7c2.7,0,5.1-1,6.9-2.7V52h9.2V1.2H0.4z"/>
<path class="st2" d="M13.1,25.7c0,2.5,2.1,4.6,4.6,4.6c1.4,0,2.7-0.6,3.5-1.6c1.1-1.3,0.8-3.2-0.5-4.2l-6-4.7c-1.3-1-1.6-3-0.5-4.2
	c0.8-1,2.1-1.6,3.5-1.6c2.5,0,4.6,2.1,4.6,4.6"/>
<polyline class="st2" points="17.7,11.6 17.7,26.6 17.7,32.4 "/>
<line class="st1" x1="28.1" y1="16.2" x2="54.7" y2="16.2"/>
<line class="st1" x1="28.1" y1="23.2" x2="40.8" y2="23.2"/>
<line class="st1" x1="28.1" y1="30.1" x2="37.4" y2="30.1"/>
<line class="st1" x1="12" y1="38.2" x2="36.2" y2="38.2"/>
<circle class="st3" cx="51.2" cy="35.9" r="10.4"/>
<path class="st3" d="M51.2,46.2c-2.7,0-5.1-1-6.9-2.7v17.7l6.9-6.9l6.9,6.9V43.6C56.3,45.2,53.9,46.2,51.2,46.2z"/>
</svg>
