<?xml version="1.0" encoding="utf-8"?>
<!-- Generator: Adobe Illustrator 21.0.0, SVG Export Plug-In . SVG Version: 6.00 Build 0)  -->
<svg version="1.1" id="Слой_1" xmlns="http://www.w3.org/2000/svg" xmlns:xlink="http://www.w3.org/1999/xlink" x="0px" y="0px"
	 viewBox="0 0 71.8 61.2" style="enable-background:new 0 0 71.8 61.2;" xml:space="preserve">
<style type="text/css">
	.st0{fill:none;stroke:#242845;stroke-miterlimit:10;}
	.st1{fill:none;stroke:#00B0FF;stroke-miterlimit:10;}
	.st2{fill:none;stroke:#969594;stroke-miterlimit:10;stroke-dasharray:2;}
</style>
<polyline class="st0" points="70.9,16.2 70.9,60.5 0.8,60.5 0.8,16.2 "/>
<polyline class="st0" points="70.9,16.2 70.9,3.1 0.8,3.1 0.8,16.2 "/>
<line class="st0" x1="35.6" y1="8.3" x2="35.6" y2="0.5"/>
<line class="st0" x1="51.2" y1="8.3" x2="51.2" y2="0.5"/>
<line class="st0" x1="19.9" y1="8.3" x2="19.9" y2="0.5"/>
<line class="st0" x1="0.8" y1="17.2" x2="70.9" y2="17.2"/>
<rect x="10.1" y="23.4" class="st0" width="11.1" height="11.1"/>
<rect x="30.8" y="23.4" class="st0" width="11.1" height="11.1"/>
<rect x="51.5" y="23.4" class="st0" width="11.1" height="11.1"/>
<rect x="10.1" y="41.5" class="st0" width="11.1" height="11.1"/>
<rect x="30.8" y="41.5" class="st0" width="11.1" height="11.1"/>
<rect x="51.5" y="41.5" class="st0" width="11.1" height="11.1"/>
<polyline class="st1" points="48.8,43.9 54.8,49.4 65.2,38.4 "/>
<line class="st2" x1="9.7" y1="37.7" x2="21.1" y2="37.7"/>
<line class="st2" x1="30.1" y1="37.7" x2="41.5" y2="37.7"/>
<line class="st2" x1="9.7" y1="56" x2="21.1" y2="56"/>
<line class="st2" x1="30.1" y1="56" x2="41.5" y2="56"/>
<line class="st2" x1="51.3" y1="37.7" x2="62.7" y2="37.7"/>
</svg>
