<?xml version="1.0" encoding="utf-8"?>
<!-- Generator: Adobe Illustrator 21.0.0, SVG Export Plug-In . SVG Version: 6.00 Build 0)  -->
<svg version="1.1" id="Слой_1" xmlns="http://www.w3.org/2000/svg" xmlns:xlink="http://www.w3.org/1999/xlink" x="0px" y="0px"
	 viewBox="0 0 68 37" style="enable-background:new 0 0 68 37;" xml:space="preserve">
<style type="text/css">
	.st0{fill:none;stroke:#00B0FF;stroke-miterlimit:10;}
</style>
<g>
	<g>
		<circle class="st0" cx="11.7" cy="2.1" r="0.4"/>
	</g>
	<path class="st0" d="M11.7,2c-0.1,0-0.3,4.3-0.3,4.3h0.3h0.3C12.1,6.3,11.8,2,11.7,2z"/>
	<polyline class="st0" points="19.6,18.9 19.8,15.7 19.2,13.6 11.7,13.6 4.2,13.6 3.6,15.7 3.9,18.9 	"/>
	<polyline class="st0" points="17.1,11.2 16.4,9.8 11.7,9.8 7.1,9.8 6.4,11.2 	"/>
	<polyline class="st0" points="9.8,9.6 9.8,6.8 13.7,6.8 13.7,9.6 	"/>
	<polyline class="st0" points="18.9,13.6 18.6,11.6 4.9,11.6 4.6,13.6 	"/>
	<path class="st0" d="M18.3,34.3L21.9,20c0,0-6.3-3.8-10.2-3.8C7.9,16.1,1.5,20,1.5,20l3.6,14.3"/>
	<line class="st0" x1="11.8" y1="34.3" x2="11.8" y2="16.2"/>
	<path class="st0" d="M0.6,34.6c0.8,0,1.2,0.2,1.6,0.4c0.3,0.2,0.6,0.3,1.2,0.3c0.6,0,0.9-0.1,1.2-0.3c0.4-0.2,0.8-0.4,1.6-0.4
		c0.8,0,1.2,0.2,1.6,0.4c0.3,0.2,0.6,0.3,1.2,0.3c0.6,0,0.9-0.1,1.2-0.3c0.4-0.2,0.8-0.4,1.6-0.4c0.8,0,1.2,0.2,1.6,0.4
		c0.3,0.2,0.6,0.3,1.2,0.3c0.6,0,0.9-0.1,1.2-0.3c0.4-0.2,0.8-0.4,1.6-0.4c0.8,0,1.2,0.2,1.6,0.4c0.3,0.2,0.6,0.3,1.2,0.3
		c0.6,0,0.9-0.1,1.2-0.3c0.4-0.2,0.8-0.4,1.6-0.4"/>
	<line class="st0" x1="10.4" y1="3.8" x2="13.1" y2="3.8"/>
</g>
<g>
	<rect x="40.5" y="9.9" class="st0" width="7.3" height="7.1"/>
	<rect x="49.9" y="9.9" class="st0" width="7.3" height="7.1"/>
	<path class="st0" d="M61.5,10.3V1H36.2v9.3V11v13.2c-0.4,0.1-0.7,0.5-0.7,1v4.1c0,0.3,0.2,0.7,0.4,0.8c-0.3,0.2-0.4,0.5-0.4,0.8
		v1.6c0,0.6,0.5,1,1,1h1.9v1.7c0,0.4,0.4,0.7,0.9,0.7h3.1c0.5,0,0.9-0.3,0.9-0.7v-1.7h10.8v1.7c0,0.4,0.4,0.7,0.9,0.7h3.1
		c0.5,0,0.9-0.3,0.9-0.7v-1.7h1.9c0.6,0,1-0.5,1-1V31c0-0.3-0.2-0.7-0.4-0.8c0.3-0.2,0.4-0.5,0.4-0.8v-4.1c0-0.5-0.3-0.8-0.7-1V11
		L61.5,10.3V8.5c0-0.8-0.7-1.4-1.6-1.4H37.8c-0.9,0-1.6,0.6-1.6,1.4v1.8"/>
	<line class="st0" x1="36.2" y1="24.2" x2="43.3" y2="24.2"/>
	<line class="st0" x1="54.4" y1="24.3" x2="61.5" y2="24.3"/>
	<polygon class="st0" points="54.4,29.1 43.3,29.1 43.3,24.2 43.3,22.2 54.4,22.2 	"/>
	<line class="st0" x1="54.4" y1="24" x2="43.3" y2="23.9"/>
	<line class="st0" x1="43.3" y1="25.6" x2="54.4" y2="25.6"/>
	<line class="st0" x1="43.3" y1="27.4" x2="54.4" y2="27.4"/>
	<line class="st0" x1="36" y1="30.1" x2="61.8" y2="30.1"/>
	<line class="st0" x1="38.5" y1="33.6" x2="59.3" y2="33.6"/>
	<polyline class="st0" points="36.2,9.9 31.7,9.9 31.7,12.6 	"/>
	<rect x="30" y="12.6" class="st0" width="3.3" height="4.4"/>
	<polyline class="st0" points="61.1,9.9 65.7,9.9 65.7,12.6 	"/>
	
		<rect x="64" y="12.6" transform="matrix(-1 -4.507207e-11 4.507207e-11 -1 131.3527 29.6566)" class="st0" width="3.3" height="4.4"/>
</g>
</svg>
