<svg id="Слой_1" data-name="Слой 1" xmlns="http://www.w3.org/2000/svg" viewBox="0 0 165 32"><defs><style>.cls-1{fill:#fff;}</style></defs><title>Монтажная область 1</title><polygon class="cls-1" points="63.92 2.68 61.91 2.68 58.76 8.35 57.03 8.4 57.03 2.68 55.28 2.68 55.28 15.38 57.03 15.38 57.03 10 58.79 9.94 62.06 15.38 64.13 15.38 60.29 9.06 63.92 2.68"/><path class="cls-1" d="M73.89,3.54a4.65,4.65,0,0,0-3-.86H66.3v12.7h4.59a4.16,4.16,0,0,0,3.6-1.62,8.75,8.75,0,0,0,1.15-5,11.75,11.75,0,0,0-.34-3A4.15,4.15,0,0,0,73.89,3.54Zm-3,10.25H68.06V4.27h2.84a2.47,2.47,0,0,1,2.23,1.06,6.53,6.53,0,0,1,.73,3.53C73.85,12.17,72.89,13.79,70.89,13.79Z"/><polygon class="cls-1" points="78.68 15.38 80.43 15.38 80.43 10.29 85.5 10.29 85.5 8.7 80.43 8.7 80.43 4.27 86.43 4.27 86.43 2.68 78.68 2.68 78.68 15.38"/><rect class="cls-1" x="88.56" y="9.48" width="5.78" height="1.63"/><path class="cls-1" d="M103.23,8.77a9.17,9.17,0,0,0-2.08-.69,14,14,0,0,1-1.95-.54A1.63,1.63,0,0,1,98.41,7a2,2,0,0,1-.23-1.06c0-1.23.81-1.82,2.48-1.82.62,0,1.79.1,3.49.3l.19,0,.16-1.53-.18,0a26.56,26.56,0,0,0-3.75-.36c-2.76,0-4.16,1.18-4.16,3.5a3.77,3.77,0,0,0,.4,1.86A2.81,2.81,0,0,0,98.08,9a10.34,10.34,0,0,0,2.32.71,8.47,8.47,0,0,1,1.64.45,1.55,1.55,0,0,1,.73.57,1.87,1.87,0,0,1,.21,1c0,1.54-.8,2.28-2.44,2.28a30.85,30.85,0,0,1-3.66-.32l-.19,0-.19,1.52.82.11a23.26,23.26,0,0,0,3.29.3c2.74,0,4.13-1.34,4.13-4a3.59,3.59,0,0,0-.36-1.72A2.66,2.66,0,0,0,103.23,8.77Z"/><polygon class="cls-1" points="107.61 15.38 115.49 15.38 115.49 13.79 109.36 13.79 109.36 9.72 114.42 9.72 114.42 8.14 109.36 8.14 109.36 4.27 115.49 4.27 115.49 2.68 107.61 2.68 107.61 15.38"/><path class="cls-1" d="M127.22,6.61a3.89,3.89,0,0,0-1-3,4.39,4.39,0,0,0-3.09-1h-4.75v12.7h1.75V10.66h3.18l2.23,4.72h1.93L125,10.3C126.48,9.76,127.22,8.51,127.22,6.61Zm-1.79.05c0,1.62-.76,2.41-2.32,2.41h-3V4.27h3A2.08,2.08,0,0,1,125.43,6.66Z"/><polygon class="cls-1" points="134.24 13.79 133.53 13.79 130.7 2.68 128.88 2.68 132.21 15.38 135.56 15.38 138.88 2.68 137.07 2.68 134.24 13.79"/><rect class="cls-1" x="141.28" y="2.68" width="1.75" height="12.7"/><path class="cls-1" d="M149,4.57c.86-.6,2.65-.57,5.06-.15l.21,0,.07-1.54-.16,0c-2.92-.61-5.1-.52-6.32.34a3.8,3.8,0,0,0-1.44,2.17A14.14,14.14,0,0,0,146.08,9a14.13,14.13,0,0,0,.38,3.63,3.75,3.75,0,0,0,1.46,2.16,5.26,5.26,0,0,0,3,.74,16.76,16.76,0,0,0,3.28-.38l.16,0-.07-1.56-.21,0c-2.47.46-4.21.42-5.05-.17a2.34,2.34,0,0,1-.91-1.44,12.92,12.92,0,0,1-.23-2.8,14.89,14.89,0,0,1,.25-3.16A2.4,2.4,0,0,1,149,4.57Z"/><polygon class="cls-1" points="165 4.27 165 2.68 157.12 2.68 157.12 15.38 165 15.38 165 13.79 158.88 13.79 158.88 9.72 163.93 9.72 163.93 8.14 158.88 8.14 158.88 4.27 165 4.27"/><path class="cls-1" d="M56.22,30.18a1.14,1.14,0,0,1-.66-.53,2.14,2.14,0,0,1-.19-1,1.8,1.8,0,0,1,.08-.62,1,1,0,0,1,.25-.39,7.1,7.1,0,0,1,.58-.48.54.54,0,0,1-.2-.29,1.28,1.28,0,0,1-.07-.42.92.92,0,0,1,.06-.31,6.59,6.59,0,0,1,.29-.61q-.93-.32-.93-1.69a1.91,1.91,0,0,1,.48-1.43A2.15,2.15,0,0,1,57.46,22a5,5,0,0,1,1.14.15l1.59,0v.52H59a1.63,1.63,0,0,1,.42,1.29A1.79,1.79,0,0,1,59,25.3a2.4,2.4,0,0,1-1.58.42,3.24,3.24,0,0,1-.59,0,.54.54,0,0,0,0,.11.46.46,0,0,1-.05.12c0,.11-.08.22-.11.31a.85.85,0,0,0,0,.25.41.41,0,0,0,.24.43,2.05,2.05,0,0,0,.75.1h.53a4.22,4.22,0,0,1,1.11.1,1.12,1.12,0,0,1,.66.45,1.75,1.75,0,0,1,.24,1,1.63,1.63,0,0,1-.57,1.39,3.28,3.28,0,0,1-1.94.43A4.11,4.11,0,0,1,56.22,30.18Zm2.53-.43a1,1,0,0,0,.58-.43,1.59,1.59,0,0,0,.17-.8,1.4,1.4,0,0,0-.12-.65.69.69,0,0,0-.44-.31,3.4,3.4,0,0,0-1-.08l-1.3,0a2.43,2.43,0,0,0-.62.54,1.17,1.17,0,0,0-.15.65,1.49,1.49,0,0,0,.16.75.89.89,0,0,0,.52.39,3.54,3.54,0,0,0,1,.12A3.8,3.8,0,0,0,58.75,29.75Zm-.18-4.81a1.5,1.5,0,0,0,.33-1.1,1.48,1.48,0,0,0-.33-1.09,1.56,1.56,0,0,0-1.1-.31,1.64,1.64,0,0,0-1.14.32A1.47,1.47,0,0,0,56,23.86a1.46,1.46,0,0,0,.33,1.09,1.62,1.62,0,0,0,1.13.31A1.6,1.6,0,0,0,58.57,24.94Z"/><path class="cls-1" d="M62.38,22.08h.55v.83a5.61,5.61,0,0,1,2.17-1v.57a5.92,5.92,0,0,0-1,.31,4.34,4.34,0,0,0-.82.4l-.3.17v4.28h-.56Z"/><path class="cls-1" d="M67.79,27.52a1.5,1.5,0,0,1-.7-.89,5.6,5.6,0,0,1-.2-1.69,5.78,5.78,0,0,1,.21-1.77,1.57,1.57,0,0,1,.71-.91,3.61,3.61,0,0,1,2.81,0,1.57,1.57,0,0,1,.71.92,5.88,5.88,0,0,1,.21,1.76,5.75,5.75,0,0,1-.2,1.69,1.48,1.48,0,0,1-.7.89,3,3,0,0,1-1.43.28A3,3,0,0,1,67.79,27.52Zm2.54-.44a1.15,1.15,0,0,0,.5-.71A5.66,5.66,0,0,0,71,24.94a5.93,5.93,0,0,0-.15-1.51,1.19,1.19,0,0,0-.51-.74,2.11,2.11,0,0,0-1.07-.22,2.2,2.2,0,0,0-1.09.22,1.17,1.17,0,0,0-.52.74,5.93,5.93,0,0,0-.15,1.51,5.67,5.67,0,0,0,.14,1.41,1.14,1.14,0,0,0,.51.72,2.21,2.21,0,0,0,1.12.22A2.12,2.12,0,0,0,70.32,27.08Z"/><path class="cls-1" d="M74.76,27.55a1.34,1.34,0,0,1-.53-.84,7.24,7.24,0,0,1-.15-1.7V22.08h.56V25a7.55,7.55,0,0,0,.1,1.43,1.1,1.1,0,0,0,.37.69,1.34,1.34,0,0,0,.81.2,3.53,3.53,0,0,0,1.81-.5V22.08h.55v5.61h-.56v-.43a4,4,0,0,1-.87.4,3.36,3.36,0,0,1-1,.13A2,2,0,0,1,74.76,27.55Z"/><path class="cls-1" d="M81.1,22.08h.55v.45A3.56,3.56,0,0,1,83.51,22a1.66,1.66,0,0,1,1.49.67,4,4,0,0,1,.45,2.17,5.11,5.11,0,0,1-.24,1.71,1.74,1.74,0,0,1-.77,1,2.91,2.91,0,0,1-1.45.31,6.57,6.57,0,0,1-1.34-.13v2.58H81.1Zm3.38,4.65a3.26,3.26,0,0,0,.42-1.87A3.56,3.56,0,0,0,84.54,23a1.16,1.16,0,0,0-1-.56,3.09,3.09,0,0,0-.84.13,4.42,4.42,0,0,0-.75.28l-.25.15v4.14a11.06,11.06,0,0,0,1.41.15A1.61,1.61,0,0,0,84.48,26.73Z"/><path class="cls-1" d="M92.33,27.52a1.5,1.5,0,0,1-.7-.89,5.6,5.6,0,0,1-.2-1.69,5.78,5.78,0,0,1,.21-1.77,1.57,1.57,0,0,1,.71-.91,3.61,3.61,0,0,1,2.81,0,1.57,1.57,0,0,1,.71.92,5.88,5.88,0,0,1,.21,1.76,5.75,5.75,0,0,1-.2,1.69,1.48,1.48,0,0,1-.7.89,3,3,0,0,1-1.43.28A3,3,0,0,1,92.33,27.52Zm2.54-.44a1.15,1.15,0,0,0,.5-.71,5.66,5.66,0,0,0,.14-1.42,5.93,5.93,0,0,0-.15-1.51,1.19,1.19,0,0,0-.51-.74,2.11,2.11,0,0,0-1.07-.22,2.2,2.2,0,0,0-1.09.22,1.17,1.17,0,0,0-.52.74A5.93,5.93,0,0,0,92,24.94a5.67,5.67,0,0,0,.14,1.41,1.14,1.14,0,0,0,.51.72,2.21,2.21,0,0,0,1.12.22A2.12,2.12,0,0,0,94.86,27.08Z"/><path class="cls-1" d="M98.9,22.58h-.75v-.49h.75v-.62A4.18,4.18,0,0,1,99,20.24a1,1,0,0,1,.45-.62,1.75,1.75,0,0,1,.86-.18l1.08.07V20l-.94,0h-.2a.65.65,0,0,0-.66.37,3,3,0,0,0-.17,1.17v.61h1.75v.49H99.45v5.12H98.9Z"/><path class="cls-1" d="M107.65,27.5a1.59,1.59,0,0,1-.68-.92,5.72,5.72,0,0,1-.2-1.69,7.22,7.22,0,0,1,.12-1.42,2,2,0,0,1,.58-1.06,1.92,1.92,0,0,1,1.39-.45l.68,0q.34,0,.94.13l0,.46a13,13,0,0,0-1.37-.1,2.12,2.12,0,0,0-1.06.22,1.21,1.21,0,0,0-.53.74,5.42,5.42,0,0,0-.16,1.49,5.15,5.15,0,0,0,.15,1.41,1.22,1.22,0,0,0,.54.73,2.21,2.21,0,0,0,1.12.23l1.34-.1,0,.47a14,14,0,0,1-1.5.12A2.61,2.61,0,0,1,107.65,27.5Z"/><path class="cls-1" d="M113.55,27.52a1.5,1.5,0,0,1-.7-.89,5.6,5.6,0,0,1-.2-1.69,5.78,5.78,0,0,1,.21-1.77,1.57,1.57,0,0,1,.71-.91,3.61,3.61,0,0,1,2.81,0,1.57,1.57,0,0,1,.71.92,5.88,5.88,0,0,1,.21,1.76,5.75,5.75,0,0,1-.2,1.69,1.48,1.48,0,0,1-.7.89,3,3,0,0,1-1.43.28A3,3,0,0,1,113.55,27.52Zm2.54-.44a1.15,1.15,0,0,0,.5-.71,5.66,5.66,0,0,0,.14-1.42,5.93,5.93,0,0,0-.15-1.51,1.19,1.19,0,0,0-.51-.74,2.11,2.11,0,0,0-1.07-.22,2.2,2.2,0,0,0-1.09.22,1.17,1.17,0,0,0-.52.74,5.93,5.93,0,0,0-.15,1.51,5.67,5.67,0,0,0,.14,1.41,1.14,1.14,0,0,0,.51.72,2.21,2.21,0,0,0,1.12.22A2.12,2.12,0,0,0,116.08,27.08Z"/><path class="cls-1" d="M119.89,22.08h.55v.43a3.44,3.44,0,0,1,1.82-.53,1.56,1.56,0,0,1,1.44.59,3.68,3.68,0,0,1,1-.42,4.33,4.33,0,0,1,1.23-.18,1.75,1.75,0,0,1,1,.27,1.45,1.45,0,0,1,.52.86,7.31,7.31,0,0,1,.15,1.65v2.93H127V24.78a7.29,7.29,0,0,0-.1-1.41,1.12,1.12,0,0,0-.37-.68,1.31,1.31,0,0,0-.81-.21,3.76,3.76,0,0,0-1,.12,2.8,2.8,0,0,0-.7.26l-.24.12a4,4,0,0,1,.19,1.8v2.92h-.56V24.8a7.45,7.45,0,0,0-.1-1.41,1.18,1.18,0,0,0-.36-.7,1.22,1.22,0,0,0-.78-.21,3.66,3.66,0,0,0-.91.12,2.57,2.57,0,0,0-.7.26l-.21.12v4.71h-.56Z"/><path class="cls-1" d="M130.38,22.08h.55v.45a3.56,3.56,0,0,1,1.86-.55,1.66,1.66,0,0,1,1.49.67,4,4,0,0,1,.45,2.17,5.11,5.11,0,0,1-.24,1.71,1.74,1.74,0,0,1-.77,1,2.91,2.91,0,0,1-1.45.31,6.57,6.57,0,0,1-1.34-.13v2.58h-.56Zm3.38,4.65a3.26,3.26,0,0,0,.42-1.87,3.56,3.56,0,0,0-.35-1.83,1.16,1.16,0,0,0-1-.56,3.09,3.09,0,0,0-.84.13,4.42,4.42,0,0,0-.75.28l-.25.15v4.14a11.06,11.06,0,0,0,1.41.15A1.61,1.61,0,0,0,133.76,26.73Z"/><path class="cls-1" d="M137.38,27.37a1.72,1.72,0,0,1-.39-1.2,1.63,1.63,0,0,1,.38-1.17,2,2,0,0,1,1.22-.5l2-.2v-.54a1.41,1.41,0,0,0-.28-1,1,1,0,0,0-.76-.31q-.49,0-.92,0l-1.34.13,0-.46a12.61,12.61,0,0,1,2.15-.21,1.75,1.75,0,0,1,1.3.43,1.87,1.87,0,0,1,.41,1.35v3.11a.39.39,0,0,0,.21.3,1.42,1.42,0,0,0,.56.17l0,.46a2,2,0,0,1-.72-.12,1.15,1.15,0,0,1-.5-.35,5.28,5.28,0,0,1-2.18.47A1.44,1.44,0,0,1,137.38,27.37ZM140.3,27l.3-.1V24.75l-1.94.19a1,1,0,0,0-1.09,1.16q0,1.21,1,1.21A5.15,5.15,0,0,0,140.3,27Z"/><path class="cls-1" d="M144,22.08h.55v.43a4.42,4.42,0,0,1,1-.41,3.81,3.81,0,0,1,1-.12,2,2,0,0,1,1.11.25,1.36,1.36,0,0,1,.54.84,7.23,7.23,0,0,1,.15,1.69v2.93h-.54V24.78a6.84,6.84,0,0,0-.11-1.39,1.17,1.17,0,0,0-.38-.7,1.27,1.27,0,0,0-.8-.21,3.8,3.8,0,0,0-.94.12,3.31,3.31,0,0,0-.73.26l-.25.12v4.71H144Z"/><path class="cls-1" d="M151.11,19.84h.54v.74h-.54Zm0,2.24h.54v5.61h-.54Z"/><path class="cls-1" d="M154.69,27.13a3.45,3.45,0,0,1-.51-2.1,3.87,3.87,0,0,1,.56-2.31,2,2,0,0,1,1.74-.75,2,2,0,0,1,1.63.65,3.16,3.16,0,0,1,.53,2v.47h-3.88a3.81,3.81,0,0,0,.16,1.29,1.21,1.21,0,0,0,.58.7,2.45,2.45,0,0,0,1.14.22l.71,0,.76-.05.34,0,0,.46a19.38,19.38,0,0,1-2,.12A2.1,2.1,0,0,1,154.69,27.13Zm3.38-2.49a2.86,2.86,0,0,0-.38-1.68,1.42,1.42,0,0,0-1.21-.51,1.59,1.59,0,0,0-1.3.53,2.63,2.63,0,0,0-.45,1.65Z"/><path class="cls-1" d="M161.27,27.66l-.34-.06,0-.49a14.06,14.06,0,0,0,1.92.19,2,2,0,0,0,1.16-.27,1,1,0,0,0,.37-.86,1,1,0,0,0-.19-.65,1,1,0,0,0-.47-.31,4.91,4.91,0,0,0-.79-.16l-.26,0a5.75,5.75,0,0,1-1.12-.28,1.13,1.13,0,0,1-.56-.43,1.69,1.69,0,0,1,.36-2,2.83,2.83,0,0,1,1.54-.35,9.47,9.47,0,0,1,1.56.11l.29.06,0,.48a12.5,12.5,0,0,0-1.85-.18,2,2,0,0,0-1.14.26.9.9,0,0,0-.35.77.81.81,0,0,0,.17.55.94.94,0,0,0,.44.28,6.89,6.89,0,0,0,.8.17l.24,0a6.4,6.4,0,0,1,1.13.29,1.21,1.21,0,0,1,.58.44,1.48,1.48,0,0,1,.2.83,1.53,1.53,0,0,1-.52,1.3,2.65,2.65,0,0,1-1.61.4A10.8,10.8,0,0,1,161.27,27.66Z"/><polygon class="cls-1" points="31.77 30.18 39.28 16.48 46.78 2.79 45.69 2.79 31.23 29.2 31.77 30.18"/><polygon class="cls-1" points="28.89 24.92 41.01 2.79 39.9 2.79 28.34 23.91 28.89 24.92"/><polygon class="cls-1" points="26 19.64 35.22 2.79 34.12 2.79 25.44 18.63 26 19.64"/><polygon class="cls-1" points="28.33 2.79 22.55 13.34 23.1 14.36 29.43 2.79 28.33 2.79"/><polygon class="cls-1" points="22.54 2.79 19.65 8.06 20.21 9.07 23.65 2.79 22.54 2.79"/><polygon class="cls-1" points="16.76 2.79 17.31 3.79 17.86 2.79 16.76 2.79"/><polygon class="cls-1" points="15.55 30.18 30.56 30.18 23.05 16.48 15.55 2.79 8.04 16.48 0.54 30.18 15.55 30.18"/></svg>