<svg id="Слой_1" data-name="Слой 1" xmlns="http://www.w3.org/2000/svg" viewBox="0 0 122 101"><defs><style>.cls-1,.cls-2{fill:none;stroke-miterlimit:10;}.cls-1{stroke:#2a2d47;}.cls-2{stroke:#00b0ff;}.cls-3{fill:#acabab;}</style></defs><title>Монтажная область 1</title><polyline class="cls-1" points="19.27 69.64 19.27 30.73 85.05 30.73 85.05 69.44"/><polyline class="cls-1" points="119.15 70.93 119.15 61.19 104.69 44.74 89.56 44.74 89.56 76.85"/><rect class="cls-1" x="113.26" y="70.75" width="7.85" height="6.1"/><polygon class="cls-1" points="93.37 61.01 93.37 49.11 102.78 49.11 108.67 55.8 108.67 61.01 93.37 61.01"/><line class="cls-1" x1="93.37" y1="65.88" x2="98.83" y2="65.88"/><circle class="cls-1" cx="41.91" cy="81" r="9.75"/><circle class="cls-1" cx="41.91" cy="81" r="3.13"/><circle class="cls-1" cx="100.99" cy="81" r="9.75"/><circle class="cls-1" cx="100.99" cy="81" r="3.13"/><line class="cls-1" x1="113.26" y1="76.85" x2="110.03" y2="76.85"/><line class="cls-1" x1="92.47" y1="76.85" x2="51.17" y2="76.85"/><polyline class="cls-1" points="33.53 76.85 16.7 76.85 16.7 69.8 89.56 69.8"/><polyline class="cls-1" points="119.15 64.11 113.26 64.11 113.26 70.75"/><line class="cls-1" x1="19.27" y1="42.1" x2="38.78" y2="42.1"/><line class="cls-1" x1="19.27" y1="49.11" x2="38.78" y2="49.11"/><line class="cls-1" x1="19.27" y1="56.32" x2="38.78" y2="56.32"/><line class="cls-2" x1="74.83" y1="0.57" x2="85.34" y2="11.08"/><line class="cls-2" x1="85.34" y1="0.57" x2="74.83" y2="11.08"/><rect class="cls-2" x="8.85" y="91.67" width="8.9" height="8.9"/><rect class="cls-3" x="101.04" y="30.43" width="1.19" height="1.19"/><rect class="cls-3" x="98.65" y="30.43" width="1.19" height="1.19"/><rect class="cls-3" x="96.27" y="30.43" width="1.19" height="1.19"/><rect class="cls-3" x="93.88" y="30.43" width="1.19" height="1.19"/><rect class="cls-3" x="91.5" y="30.43" width="1.19" height="1.19"/><rect class="cls-3" x="103.52" y="28.44" width="1.19" height="1.19"/><rect class="cls-3" x="103.52" y="30.43" width="1.19" height="1.19"/><rect class="cls-3" x="103.52" y="26.05" width="1.19" height="1.19"/><rect class="cls-3" x="103.52" y="23.67" width="1.19" height="1.19"/><rect class="cls-3" x="103.52" y="21.28" width="1.19" height="1.19"/><rect class="cls-3" x="103.52" y="18.9" width="1.19" height="1.19"/><rect class="cls-3" x="103.52" y="16.51" width="1.19" height="1.19"/><rect class="cls-3" x="103.52" y="14.13" width="1.19" height="1.19"/><rect class="cls-3" x="103.52" y="11.74" width="1.19" height="1.19"/><rect class="cls-3" x="101.04" y="9.89" width="1.19" height="1.19"/><rect class="cls-3" x="103.52" y="9.89" width="1.19" height="1.19"/><rect class="cls-3" x="98.65" y="9.89" width="1.19" height="1.19"/><rect class="cls-3" x="96.27" y="9.89" width="1.19" height="1.19"/><rect class="cls-3" x="93.88" y="9.89" width="1.19" height="1.19"/><rect class="cls-3" x="91.5" y="9.89" width="1.19" height="1.19"/><rect class="cls-3" x="12.71" y="79.12" width="1.19" height="1.19"/><rect class="cls-3" x="0.26" y="55.73" width="1.19" height="1.19"/><rect class="cls-3" x="12.71" y="88.39" width="1.19" height="1.19"/><rect class="cls-3" x="12.71" y="86.01" width="1.19" height="1.19"/><rect class="cls-3" x="12.71" y="83.62" width="1.19" height="1.19"/><rect class="cls-3" x="12.71" y="81.24" width="1.19" height="1.19"/><rect class="cls-3" x="10.06" y="79.12" width="1.19" height="1.19"/><rect class="cls-3" x="7.68" y="79.12" width="1.19" height="1.19"/><rect class="cls-3" x="5.29" y="79.12" width="1.19" height="1.19"/><rect class="cls-3" x="2.91" y="79.12" width="1.19" height="1.19"/><polygon class="cls-3" points="1.41 80.31 0.26 80.31 0.26 79.07 1.46 79.07 1.41 80.31"/><rect class="cls-3" x="0.26" y="76.94" width="1.19" height="1.19"/><rect class="cls-3" x="0.26" y="74.55" width="1.19" height="1.19"/><rect class="cls-3" x="0.26" y="72.17" width="1.19" height="1.19"/><rect class="cls-3" x="0.26" y="69.78" width="1.19" height="1.19"/><rect class="cls-3" x="0.26" y="67.4" width="1.19" height="1.19"/><rect class="cls-3" x="0.26" y="65.01" width="1.19" height="1.19"/><rect class="cls-3" x="0.26" y="62.63" width="1.19" height="1.19"/><rect class="cls-3" x="0.26" y="60.24" width="1.19" height="1.19"/><rect class="cls-3" x="0.26" y="57.86" width="1.19" height="1.19"/><rect class="cls-3" x="12.1" y="55.73" width="1.19" height="1.19"/><rect class="cls-3" x="9.71" y="55.73" width="1.19" height="1.19"/><rect class="cls-3" x="7.33" y="55.73" width="1.19" height="1.19"/><rect class="cls-3" x="4.94" y="55.73" width="1.19" height="1.19"/><rect class="cls-3" x="2.56" y="55.73" width="1.19" height="1.19"/></svg>