<?xml version="1.0" encoding="utf-8"?>
<!-- Generator: Adobe Illustrator 21.0.0, SVG Export Plug-In . SVG Version: 6.00 Build 0)  -->
<svg version="1.1" id="Слой_1" xmlns="http://www.w3.org/2000/svg" xmlns:xlink="http://www.w3.org/1999/xlink" x="0px" y="0px"
	 viewBox="0 0 67 101" style="enable-background:new 0 0 67 101;" xml:space="preserve">
<style type="text/css">
	.st0{fill:#ACABAB;}
	.st1{fill:none;stroke:#242845;stroke-miterlimit:10;}
	.st2{fill:none;stroke:#00B0FF;stroke-miterlimit:10;}
	.st3{fill:none;stroke:#ACABAB;stroke-miterlimit:10;}
</style>
<title>Монтажная область 1</title>
<path class="st0" d="M58,79.5h-1.9v-1.7H58V79.5z M54.2,79.5h-1.9v-1.7h1.9L54.2,79.5z M50.3,79.5h-1.9v-1.7h1.9V79.5z"/>
<polygon class="st1" points="65.9,100.4 65.9,0.4 24,0.4 1.4,23 1.4,100.4 7.8,97.2 14.3,100.4 20.8,97.2 27.2,100.4 33.7,97.2 
	40.1,100.4 46.6,97.2 53,100.4 59.5,97.2 "/>
<polyline class="st1" points="1.4,23 24,23 24,0.4 "/>
<line class="st2" x1="35" y1="78.6" x2="35" y2="40"/>
<path class="st3" d="M54.4,10.7c0,0,0-3.5-5.2-3.5s-4.6,4-4.6,4s0,4,4.6,4c5.2,0,5.8,3.5,5.8,4c0,1.2,0.6,4.6-5.8,4.6
	C44,24,44,21.7,44,21.1"/>
<line class="st3" x1="49.8" y1="5.1" x2="49.8" y2="26"/>
<line class="st2" x1="17.5" y1="34.5" x2="52.1" y2="34.5"/>
<line class="st2" x1="17.5" y1="40.5" x2="52.1" y2="40.5"/>
</svg>
