<svg id="Слой_1" data-name="Слой 1" xmlns="http://www.w3.org/2000/svg" viewBox="0 0 67 101"><defs><style>.cls-1{fill:#acabab;}.cls-2,.cls-3,.cls-4{fill:none;stroke-miterlimit:10;}.cls-2{stroke:#242845;}.cls-3{stroke:#00b0ff;}.cls-4{stroke:#acabab;}</style></defs><title>Монтажная область 1</title><path class="cls-1" d="M58,79.47H56.08V77.74H58Zm-3.83,0H52.25V77.74h1.91Zm-3.83,0H48.42V77.74h1.92Z"/><polygon class="cls-2" points="65.92 100.45 65.92 0.45 23.98 0.45 1.4 23.03 1.4 100.45 7.85 97.22 14.3 100.45 20.76 97.22 27.21 100.45 33.66 97.22 40.11 100.45 46.56 97.22 53.01 100.45 59.47 97.22 65.92 100.45"/><polyline class="cls-2" points="1.4 23.03 23.98 23.03 23.98 0.45"/><line class="cls-3" x1="23.98" y1="78.61" x2="23.98" y2="33.45"/><path class="cls-3" d="M24,35.06h9.6S49.84,33.89,49.84,48s-16.25,12.9-16.25,12.9H17.53"/><line class="cls-3" x1="17.53" y1="68.93" x2="35.27" y2="68.93"/><path class="cls-4" d="M54.36,10.72s0-3.47-5.21-3.47-4.63,4-4.63,4,0,4,4.63,4c5.21,0,5.79,3.47,5.79,4,0,1.16.57,4.63-5.79,4.63C44,24,44,21.71,44,21.13"/><line class="cls-4" x1="49.84" y1="5.13" x2="49.84" y2="25.95"/></svg>