<svg id="Слой_1" data-name="Слой 1" xmlns="http://www.w3.org/2000/svg" viewBox="0 0 107 101"><defs><style>.cls-1,.cls-2,.cls-3{fill:none;stroke-miterlimit:10;}.cls-1{stroke:#acabab;}.cls-2{stroke:#242845;}.cls-3{stroke:#00b0ff;}</style></defs><title>Монтажная область 1</title><polygon class="cls-1" points="71 68.35 76.94 78.65 82.89 88.95 71 88.95 59.1 88.95 65.05 78.65 71 68.35"/><line class="cls-2" x1="19.51" y1="100.5" x2="64.34" y2="100.5"/><line class="cls-2" x1="41.92" y1="100.5" x2="41.92" y2="0.5"/><polygon class="cls-2" points="83.3 28.09 10.89 28.09 41.92 12.57 83.3 28.09"/><line class="cls-2" x1="3.99" y1="28.09" x2="90.2" y2="28.09"/><line class="cls-2" x1="81.58" y1="27.94" x2="81.58" y2="55.78"/><line class="cls-2" x1="76.4" y1="49.39" x2="86.75" y2="49.39"/><line class="cls-2" x1="81.58" y1="55.78" x2="72.96" y2="64.4"/><line class="cls-2" x1="81.58" y1="55.78" x2="90.2" y2="64.4"/><rect class="cls-2" x="57.03" y="64.4" width="49.09" height="24.55"/><line class="cls-2" x1="12.61" y1="28.07" x2="12.61" y2="45.69"/><line class="cls-2" x1="7.44" y1="39.5" x2="17.78" y2="39.5"/><line class="cls-2" x1="12.61" y1="45.69" x2="3.99" y2="54.31"/><line class="cls-2" x1="12.61" y1="45.69" x2="21.23" y2="54.31"/><rect class="cls-2" x="0.54" y="54.31" width="24.14" height="12.07"/><line class="cls-2" x1="41.92" y1="84.98" x2="26.4" y2="100.5"/><line class="cls-2" x1="41.92" y1="84.98" x2="57.44" y2="100.5"/><circle class="cls-3" cx="93.77" cy="76.72" r="11.19"/></svg>