<svg id="Слой_1" data-name="Слой 1" xmlns="http://www.w3.org/2000/svg" viewBox="0 0 74 102"><defs><style>.cls-1,.cls-2,.cls-3{fill:none;stroke-miterlimit:10;}.cls-1{stroke:#00b0ff;}.cls-2{stroke:#242845;}.cls-3{stroke:#acabab;}</style></defs><title>Монтажная область 1</title><path class="cls-1" d="M17.19,87.5a7.37,7.37,0,1,0-7.84,0"/><polyline class="cls-2" points="64.08 70.75 64.08 92.52 17.18 92.52"/><line class="cls-3" x1="6.05" y1="15.76" x2="26.02" y2="15.76"/><line class="cls-2" x1="33.82" y1="75.85" x2="44.02" y2="75.85"/><line class="cls-2" x1="6.05" y1="33.66" x2="52.88" y2="33.66"/><line class="cls-2" x1="6.05" y1="40.69" x2="52.88" y2="40.69"/><line class="cls-2" x1="6.05" y1="47.72" x2="52.88" y2="47.72"/><line class="cls-2" x1="6.05" y1="54.75" x2="52.88" y2="54.75"/><line class="cls-2" x1="6.05" y1="61.78" x2="33.86" y2="61.78"/><circle class="cls-1" cx="13.26" cy="81.25" r="3.92"/><polyline class="cls-1" points="9.34 81.25 9.34 100.75 13.53 97.67 17.18 100.75 17.18 81.25"/><polyline class="cls-3" points="55.23 84.09 46.46 86.44 50.03 81.25 36 87.5 39.33 80.69 30.89 83.12"/><polygon class="cls-2" points="60.59 80.46 71.45 52.04 64.64 49.44 53.78 77.86 55.23 84.09 60.59 80.46"/><rect class="cls-2" x="56.19" y="69.92" width="7.29" height="4.64" transform="translate(29.72 -16.59) rotate(20.91)"/><path class="cls-2" d="M69,46.12h0a2.41,2.41,0,0,1,2.41,2.41v2.41a0,0,0,0,1,0,0H66.6a0,0,0,0,1,0,0V48.53A2.41,2.41,0,0,1,69,46.12Z" transform="translate(21.86 -21.43) rotate(20.91)"/><polyline class="cls-2" points="63.52 52.36 72.92 55.95 70.55 62.17"/><polyline class="cls-2" points="64.08 49.9 64.08 0.75 1.16 0.75 1.16 92.52 9.34 92.52"/></svg>