<?xml version="1.0" encoding="utf-8"?>
<!-- Generator: Adobe Illustrator 21.0.0, SVG Export Plug-In . SVG Version: 6.00 Build 0)  -->
<svg version="1.1" id="Слой_1" xmlns="http://www.w3.org/2000/svg" xmlns:xlink="http://www.w3.org/1999/xlink" x="0px" y="0px"
	 viewBox="0 0 38.3 37" style="enable-background:new 0 0 38.3 37;" xml:space="preserve">
<style type="text/css">
	.st0{fill:none;stroke:#00B0FF;stroke-miterlimit:10;}
</style>
<path class="st0" d="M14.8,29.2H9.7V14.1c2.6-0.9,4.5-3.4,4.5-6.4c0-3.7-3-6.8-6.8-6.8S0.7,4,0.7,7.7c0,3.1,2.2,5.8,5.1,6.6v14.9
	H0.7v4.5h4.5v2.3h4.5v-2.3h16.9v2.3h4.5v-2.3h4.5"/>
<polyline class="st0" points="0.7,33.7 37.5,33.7 37.5,29.2 0.7,29.2 "/>
<polyline class="st0" points="23.7,11.6 23.7,18.3 26.3,16.6 28.9,18.3 28.9,11.6 "/>
<line class="st0" x1="7.5" y1="0.9" x2="7.5" y2="3.2"/>
<line class="st0" x1="10.6" y1="4.5" x2="12.2" y2="2.9"/>
<line class="st0" x1="12" y1="7.7" x2="14.3" y2="7.7"/>
<line class="st0" x1="3" y1="7.7" x2="0.7" y2="7.7"/>
<line class="st0" x1="4.3" y1="4.5" x2="2.7" y2="2.9"/>
<line class="st0" x1="7.5" y1="4.3" x2="7.5" y2="8.3"/>
<circle class="st0" cx="7.5" cy="8.3" r="0.4"/>
<rect x="17.6" y="11.6" class="st0" width="17.5" height="17.5"/>
</svg>
