<?xml version="1.0" encoding="utf-8"?>
<!-- Generator: Adobe Illustrator 21.0.0, SVG Export Plug-In . SVG Version: 6.00 Build 0)  -->
<svg version="1.1" id="Слой_1" xmlns="http://www.w3.org/2000/svg" xmlns:xlink="http://www.w3.org/1999/xlink" x="0px" y="0px"
	 viewBox="0 0 110.3 32" style="enable-background:new 0 0 110.3 32;" xml:space="preserve">
<style type="text/css">
	.st0{enable-background:new    ;}
	.st1{fill:#FFFFFF;}
	.st2{fill:#AAA9A9;}
</style>
<title>Монтажная область 1</title>
<g class="st0">
	<path class="st1" d="M42.8,14.3V1.9h0.3l8.3,9.5V1.9h1.2v12.4h-0.3L44.1,5v9.4L42.8,14.3L42.8,14.3z"/>
	<path class="st1" d="M55.2,5.2h1.2v4.3c0,1.1,0.1,1.8,0.2,2.1c0.2,0.5,0.5,1,1,1.3s1.1,0.5,1.7,0.5c0.7,0,1.2-0.2,1.7-0.5
		s0.8-0.7,1-1.2c0.1-0.4,0.2-1.1,0.2-2.3V5.2h1.2v4.5c0,1.2-0.1,2.2-0.4,2.9c-0.3,0.7-0.7,1.1-1.3,1.5s-1.3,0.5-2.2,0.5
		S57.6,14.4,57,14s-1.1-0.9-1.4-1.5s-0.4-1.6-0.4-2.9V5.2L55.2,5.2z"/>
	<path class="st1" d="M65.4,5.2h1.2v1.4c0.4-0.5,0.7-1,1.1-1.2C68.1,5.2,68.5,5,68.9,5c0.3,0,0.7,0.1,1.1,0.3l-0.6,1
		C69.2,6.1,68.9,6,68.8,6c-0.4,0-0.8,0.2-1.1,0.5C67.3,6.8,67,7.4,66.9,8c-0.1,0.5-0.2,1.6-0.2,3.1v3.1h-1.2L65.4,5.2L65.4,5.2z"/>
	<path class="st1" d="M70.8,1.6H72v12.7h-1.2V1.6z"/>
	<path class="st1" d="M73.4,5.2h1.2l3.1,7.1l3-7.1h1.2l-5.5,12.5h-1.2l1.8-4L73.4,5.2z"/>
</g>
<path id="луч_23_" class="st1" d="M16.8,6.5c0.5-0.1,1-0.1,1.5-0.1s1,0.1,1.5,0.1l-1.6-6.1L16.8,6.5z"/>
<path id="луч_21_" class="st1" d="M12.7,23.6c-0.4-0.3-0.8-0.7-1.2-1c-0.4-0.4-0.7-0.8-1-1.2l-3.2,5.4L12.7,23.6z"/>
<path id="луч_19_" class="st1" d="M10.6,10.3c0.3-0.4,0.7-0.8,1-1.2c0.4-0.4,0.8-0.7,1.2-1L7.4,4.9L10.6,10.3z"/>
<path id="луч_18_" class="st1" d="M8.9,17.4c-0.1-0.5-0.1-1-0.1-1.5s0.1-1,0.1-1.5L2.8,16L8.9,17.4z"/>
<g>
	<g>
		<g class="st0">
			<path class="st2" d="M90.6,1.9h1.2v8.4c0,1.3-0.1,2.2-0.3,2.7c-0.2,0.5-0.5,0.9-1,1.2s-1,0.5-1.7,0.5c-0.5,0-1-0.1-1.5-0.3
				s-1-0.5-1.6-1l0.7-1c0.7,0.5,1.2,0.8,1.6,1c0.3,0.1,0.5,0.2,0.8,0.2c0.4,0,0.7-0.1,1-0.3s0.5-0.5,0.6-0.8c0.1-0.4,0.2-1,0.2-2.1
				L90.6,1.9L90.6,1.9z"/>
			<path class="st2" d="M99,4.9c1.4,0,2.6,0.5,3.5,1.5c0.8,1,1.2,2,1.2,3.3s-0.5,2.4-1.3,3.3c-0.9,1-2,1.4-3.4,1.4s-2.6-0.5-3.4-1.4
				s-1.3-2.1-1.3-3.3s0.4-2.4,1.2-3.3C96.4,5.5,97.6,4.9,99,4.9z M99,6.1c-1,0-1.8,0.4-2.5,1.1s-1.1,1.6-1.1,2.6
				c0,0.7,0.2,1.3,0.5,1.8s0.8,1,1.3,1.3s1.1,0.5,1.8,0.5s1.2-0.2,1.8-0.5c0.5-0.3,1-0.8,1.3-1.3c0.3-0.6,0.5-1.2,0.5-1.8
				c0-1-0.4-1.9-1.1-2.6C100.8,6.5,99.9,6.1,99,6.1z"/>
			<path class="st2" d="M105.8,1.6h1.2v12.7h-1.2V1.6z"/>
		</g>
		<g class="st0">
			<path class="st2" d="M42.9,19.2h0.8v7H47V27h-4.1V19.2z"/>
			<path class="st2" d="M53.6,21.1c1,0,1.8,0.3,2.4,1c0.6,0.6,0.9,1.2,0.9,2.1c0,0.8-0.3,1.5-0.9,2.1s-1.4,0.9-2.3,0.9
				s-1.7-0.3-2.4-0.9s-1-1.3-1-2.1c0-0.8,0.3-1.5,0.9-2.1C51.8,21.4,52.5,21.1,53.6,21.1z M53.6,21.8c-0.7,0-1.2,0.2-1.7,0.7
				s-0.7,1-0.7,1.7c0,0.4,0.1,0.8,0.4,1.1c0.2,0.4,0.5,0.7,0.9,0.8c0.4,0.2,0.8,0.3,1.2,0.3s0.8-0.1,1.2-0.3
				c0.4-0.2,0.7-0.5,0.9-0.8c0.2-0.4,0.4-0.8,0.4-1.1c0-0.7-0.2-1.2-0.7-1.7C54.8,22.1,54.2,21.8,53.6,21.8z"/>
			<path class="st2" d="M66.1,21.2h0.8v4.6c0,0.8-0.1,1.4-0.2,1.8c-0.2,0.5-0.6,1-1.1,1.2c-0.5,0.3-1.1,0.4-1.9,0.4
				c-0.5,0-1-0.1-1.4-0.2s-0.8-0.3-1.1-0.5s-0.5-0.6-0.7-1h0.9c0.2,0.4,0.5,0.7,0.9,0.8c0.4,0.2,0.8,0.3,1.4,0.3
				c0.5,0,1-0.1,1.4-0.3c0.4-0.2,0.7-0.4,0.8-0.7c0.2-0.3,0.2-0.7,0.2-1.4v-0.3c-0.3,0.4-0.7,0.6-1.1,0.8c-0.4,0.2-0.9,0.3-1.4,0.3
				c-0.6,0-1.1-0.1-1.6-0.4c-0.5-0.2-0.9-0.6-1.2-1.1c-0.3-0.5-0.4-1-0.4-1.5s0.1-1,0.4-1.5s0.7-0.8,1.2-1.1
				c0.5-0.2,1.1-0.4,1.6-0.4s0.9,0.1,1.3,0.2c0.4,0.2,0.8,0.5,1.2,0.9L66.1,21.2L66.1,21.2z M63.7,21.8c-0.5,0-0.9,0.1-1.2,0.3
				c-0.4,0.2-0.7,0.5-0.9,0.8c-0.2,0.4-0.4,0.7-0.4,1.1c0,0.7,0.2,1.1,0.7,1.5s1.1,0.6,1.8,0.6c0.7,0,1.3-0.2,1.8-0.6s0.7-1,0.7-1.6
				c0-0.4-0.1-0.8-0.3-1.1c-0.2-0.4-0.5-0.6-0.9-0.8C64.5,21.8,64.2,21.8,63.7,21.8z"/>
			<path class="st2" d="M71.4,18.9c0.2,0,0.4,0.1,0.5,0.2s0.2,0.2,0.2,0.4c0,0.2-0.1,0.3-0.2,0.4s-0.3,0.2-0.5,0.2S71,20,70.9,19.9
				s-0.2-0.2-0.2-0.4c0-0.2,0.1-0.3,0.2-0.4C71,18.9,71.2,18.9,71.4,18.9z M71,21.2h0.8v5.7H71V21.2z"/>
			<path class="st2" d="M79,21.9l-0.5,0.5c-0.4-0.4-0.8-0.6-1.2-0.6c-0.2,0-0.5,0.1-0.7,0.2c-0.2,0.2-0.3,0.4-0.3,0.5
				c0,0.2,0.1,0.4,0.2,0.5c0.2,0.2,0.5,0.4,1,0.6c0.6,0.3,1,0.5,1.2,0.8c0.2,0.2,0.3,0.6,0.3,0.9c0,0.5-0.2,0.9-0.5,1.2
				c-0.4,0.3-0.8,0.5-1.4,0.5c-0.4,0-0.7-0.1-1-0.2c-0.4-0.1-0.6-0.4-0.8-0.6l0.5-0.5c0.4,0.4,0.8,0.7,1.3,0.7
				c0.3,0,0.6-0.1,0.8-0.3c0.2-0.2,0.4-0.4,0.4-0.7c0-0.2-0.1-0.4-0.2-0.5c-0.2-0.2-0.5-0.4-1-0.6s-1-0.5-1.1-0.8
				c-0.2-0.2-0.3-0.5-0.3-0.9s0.2-0.8,0.5-1.1s0.7-0.4,1.2-0.4C77.8,21.1,78.4,21.4,79,21.9z"/>
			<path class="st2" d="M83.5,19.1h0.8v2.1h1.2v0.7h-1.2V27h-0.8v-5.1h-1.1v-0.7h1.1V19.1z"/>
			<path class="st2" d="M89.5,18.9c0.2,0,0.4,0.1,0.5,0.2s0.2,0.2,0.2,0.4c0,0.2-0.1,0.3-0.2,0.4s-0.3,0.2-0.5,0.2S89.1,20,89,19.9
				s-0.2-0.2-0.2-0.4c0-0.2,0.1-0.3,0.2-0.4C89.2,18.9,89.4,18.9,89.5,18.9z M89.2,21.2H90v5.7h-0.8V21.2z"/>
			<path class="st2" d="M100.1,22.4l-0.7,0.4c-0.5-0.7-1.3-1-2.3-1c-0.8,0-1.4,0.2-1.9,0.7c-0.5,0.4-0.8,1-0.8,1.7
				c0,0.4,0.1,0.8,0.4,1.2c0.2,0.4,0.5,0.7,1,0.8c0.4,0.2,0.8,0.3,1.4,0.3c0.9,0,1.7-0.4,2.3-1l0.7,0.4c-0.3,0.4-0.7,0.7-1.2,1
				c-0.5,0.2-1.1,0.4-1.7,0.4c-1,0-1.8-0.3-2.4-0.9c-0.7-0.6-1-1.2-1-2.1c0-0.5,0.2-1.1,0.5-1.5s0.7-0.8,1.2-1.1
				c0.5-0.3,1.1-0.4,1.8-0.4c0.4,0,0.8,0.1,1.2,0.2c0.4,0.1,0.7,0.2,1,0.5C99.7,21.9,99.9,22.1,100.1,22.4z"/>
			<path class="st2" d="M107.2,21.9l-0.5,0.5c-0.4-0.4-0.8-0.6-1.2-0.6c-0.2,0-0.5,0.1-0.7,0.2c-0.2,0.2-0.3,0.4-0.3,0.5
				c0,0.2,0.1,0.4,0.2,0.5c0.2,0.2,0.5,0.4,1,0.6c0.6,0.3,1,0.5,1.2,0.8c0.2,0.2,0.3,0.6,0.3,0.9c0,0.5-0.2,0.9-0.5,1.2
				s-0.8,0.5-1.4,0.5c-0.4,0-0.7-0.1-1-0.2c-0.4-0.1-0.6-0.4-0.8-0.6l0.5-0.5c0.4,0.4,0.8,0.7,1.3,0.7c0.3,0,0.6-0.1,0.8-0.3
				c0.2-0.2,0.4-0.4,0.4-0.7c0-0.2-0.1-0.4-0.2-0.5c-0.2-0.2-0.5-0.4-1-0.6s-1-0.5-1.1-0.8c-0.2-0.2-0.3-0.5-0.3-0.9
				s0.2-0.8,0.5-1.1s0.7-0.4,1.2-0.4C106.1,21.1,106.6,21.4,107.2,21.9z"/>
		</g>
		<path id="луч_40_" class="st2" d="M26.1,21.5c-0.3,0.4-0.7,0.8-1,1.2c-0.4,0.4-0.8,0.7-1.2,1l5.4,3.2L26.1,21.5z"/>
		<path id="луч_39_" class="st2" d="M23.9,8.1c0.4,0.3,0.8,0.7,1.2,1c0.4,0.4,0.7,0.8,1,1.2l3.2-5.4L23.9,8.1z"/>
		<path id="луч_38_" class="st2" d="M27.7,14.4c0.1,0.5,0.1,1,0.1,1.5s-0.1,1-0.1,1.5l6.1-1.5L27.7,14.4z"/>
		<path id="луч_37_" class="st2" d="M19.8,25.3c-0.5,0.1-1,0.1-1.5,0.1s-1-0.1-1.5-0.1l1.5,6.1L19.8,25.3z"/>
		<path id="road_9_" class="st2" d="M24.5,9.3c-6.2,3.7-8.4,14.8-8.4,14.8c0,0.5,0.7,0.7,0.7,0.7c0.5,0.1,1,0.1,1.5,0.1c5,0,9-4,9-9
			C27.4,13.3,26.2,11,24.5,9.3z M19.2,24.4c0,0-0.4,0.1-0.4-0.5c0-0.5,1.3-10,5.3-14.2c1.7,1.5,2.7,3.7,2.7,6.2
			C26.8,20.3,23.5,23.9,19.2,24.4z"/>
	</g>
</g>
<path id="road" class="st1" d="M18.3,6.9c-5,0-9,4-9,9c0,3.4,1.9,6.4,4.7,7.9c0,0,0.5,0.1,0.6-0.2c0.2-0.4,3.2-10.4,9.9-14.3
	C22.8,7.8,20.7,6.9,18.3,6.9z M12.7,21.7c-0.2,0.3-0.5,0.1-0.5,0.1c-1.4-1.5-2.3-3.6-2.3-5.9c0-4.7,3.8-8.5,8.5-8.5
	c2,0,3.9,0.7,5.4,2C18.1,12.3,12.9,21.4,12.7,21.7z"/>
<rect x="42.6" y="16.9" class="st1" width="28.3" height="0.8"/>
<rect x="81" y="16.9" class="st1" width="25.9" height="0.8"/>
</svg>
