<?xml version="1.0" encoding="utf-8"?>
<!-- Generator: Adobe Illustrator 21.0.0, SVG Export Plug-In . SVG Version: 6.00 Build 0)  -->
<svg version="1.1" id="Слой_1" xmlns="http://www.w3.org/2000/svg" xmlns:xlink="http://www.w3.org/1999/xlink" x="0px" y="0px"
	 viewBox="0 0 233.5 54" style="enable-background:new 0 0 233.5 54;" xml:space="preserve">
<style type="text/css">
	.st0{fill:none;}
	.st1{enable-background:new    ;}
	.st2{fill:#00B0FF;}
	.st3{font-family:'CenturyGothic';}
	.st4{font-size:28.9977px;}
	.st5{fill:#2A2D47;}
	.st6{fill:none;stroke:#00B0FF;stroke-width:2;stroke-miterlimit:10;}
	.st7{fill:#FFFFFF;}
</style>
<rect x="92.8" y="2.8" class="st0" width="127.1" height="23.6"/>
<g class="st1">
	<path class="st2" d="M95.4,24.1V3.3h0.5l13.9,16v-16h2.1v20.8h-0.5L97.5,8.4v15.8h-2.1V24.1z"/>
	<path class="st2" d="M116.2,8.7h2v7.2c0,1.8,0.1,3,0.3,3.6c0.3,0.9,0.8,1.7,1.6,2.2c0.8,0.5,1.8,0.8,2.9,0.8s2-0.3,2.8-0.8
		s1.3-1.2,1.6-2.1c0.2-0.6,0.3-1.9,0.3-3.8V8.7h2v7.6c0,2.1-0.2,3.7-0.7,4.8c-0.5,1.1-1.2,1.9-2.2,2.5s-2.2,0.9-3.7,0.9
		s-2.8-0.3-3.8-0.9s-1.8-1.5-2.3-2.5s-0.7-2.7-0.7-4.9V8.7H116.2z"/>
	<path class="st2" d="M133.4,8.7h2V11c0.6-0.9,1.2-1.6,1.9-2s1.4-0.7,2.1-0.7c0.5,0,1.1,0.2,1.8,0.5l-1,1.7c-0.4-0.2-0.8-0.3-1-0.3
		c-0.7,0-1.3,0.3-1.9,0.8c-0.6,0.5-1.1,1.4-1.4,2.5c-0.2,0.9-0.4,2.7-0.4,5.3V24h-2V8.7H133.4z"/>
	<path class="st2" d="M142.6,2.8h2v21.4h-2V2.8z"/>
	<path class="st2" d="M147,8.7h2.1l5.3,11.9l5.1-11.9h2.1l-9.2,21h-2.1l3-6.8L147,8.7z"/>
</g>
<text transform="matrix(1 0 0 1 159.1398 24.1313)" class="st3 st4"> </text>
<g class="st1">
	<path class="st5" d="M175.9,3.3h2.1v14.1c0,2.2-0.2,3.7-0.5,4.5s-0.9,1.5-1.7,2s-1.7,0.8-2.8,0.8c-0.8,0-1.7-0.2-2.5-0.5
		s-1.7-0.9-2.7-1.7l1.1-1.7c1.1,0.8,2,1.3,2.7,1.6c0.5,0.2,0.9,0.3,1.4,0.3c0.6,0,1.1-0.2,1.6-0.5c0.5-0.4,0.8-0.8,1-1.4
		s0.3-1.7,0.3-3.5L175.9,3.3L175.9,3.3z"/>
	<path class="st5" d="M190,8.3c2.4,0,4.3,0.9,5.9,2.6c1.4,1.6,2.1,3.4,2.1,5.6s-0.8,4-2.2,5.6c-1.5,1.6-3.4,2.4-5.8,2.4
		c-2.4,0-4.3-0.8-5.8-2.4s-2.2-3.5-2.2-5.6s0.7-4,2.1-5.5C185.7,9.2,187.6,8.3,190,8.3z M190,10.3c-1.6,0-3.1,0.6-4.2,1.8
		c-1.2,1.2-1.8,2.7-1.8,4.4c0,1.1,0.3,2.2,0.8,3.1s1.3,1.7,2.2,2.2s1.9,0.8,3,0.8s2.1-0.3,3-0.8s1.6-1.3,2.2-2.2
		c0.5-1,0.8-2,0.8-3.1c0-1.7-0.6-3.2-1.8-4.4C193.1,10.9,191.6,10.3,190,10.3z"/>
	<path class="st5" d="M201.4,2.8h2v21.4h-2V2.8z"/>
</g>
<rect x="93.7" y="32.2" class="st0" width="127.1" height="23.6"/>
<g class="st1">
	<path class="st5" d="M95.5,32.4h1.4v11.8h5.5v1.3h-6.9V32.4z"/>
	<path class="st5" d="M113.5,35.6c1.6,0,3,0.5,4,1.6c1,1,1.5,2.1,1.5,3.5c0,1.3-0.5,2.5-1.5,3.5s-2.3,1.5-3.9,1.5s-2.9-0.5-4-1.5
		S108,42,108,40.7s0.5-2.5,1.5-3.5C110.5,36.1,111.8,35.6,113.5,35.6z M113.5,36.8c-1.1,0-2.1,0.4-2.9,1.1c-0.8,0.8-1.2,1.7-1.2,2.8
		c0,0.7,0.2,1.3,0.6,1.9s0.9,1.1,1.5,1.4c0.6,0.3,1.3,0.5,2.1,0.5s1.4-0.2,2.1-0.5c0.6-0.3,1.1-0.8,1.5-1.4c0.4-0.6,0.6-1.3,0.6-1.9
		c0-1.1-0.4-2-1.2-2.8C115.6,37.2,114.6,36.8,113.5,36.8z"/>
	<path class="st5" d="M134.6,35.8h1.4v7.7c0,1.4-0.1,2.3-0.4,3c-0.4,0.9-1,1.6-1.8,2c-0.9,0.5-1.9,0.7-3.2,0.7
		c-0.9,0-1.7-0.1-2.4-0.4c-0.7-0.2-1.3-0.5-1.8-0.9s-0.9-1-1.2-1.7h1.5c0.4,0.6,0.9,1.1,1.5,1.4c0.6,0.3,1.4,0.5,2.4,0.5
		c0.9,0,1.7-0.2,2.3-0.5s1.1-0.7,1.4-1.2c0.3-0.5,0.4-1.2,0.4-2.3v-0.5c-0.5,0.6-1.1,1-1.9,1.4c-0.7,0.3-1.5,0.5-2.3,0.5
		c-1,0-1.9-0.2-2.7-0.7c-0.9-0.4-1.5-1-2-1.8s-0.7-1.6-0.7-2.5s0.2-1.7,0.7-2.5s1.2-1.4,2-1.8s1.8-0.7,2.7-0.7
		c0.8,0,1.5,0.1,2.2,0.4c0.7,0.3,1.3,0.8,2,1.5L134.6,35.8L134.6,35.8z M130.6,36.8c-0.8,0-1.5,0.2-2.1,0.5
		c-0.7,0.3-1.2,0.8-1.5,1.4s-0.6,1.2-0.6,1.9c0,1.1,0.4,1.9,1.2,2.6c0.8,0.7,1.8,1,3,1c1.2,0,2.2-0.3,3-1s1.1-1.6,1.1-2.7
		c0-0.7-0.2-1.4-0.5-1.9c-0.3-0.6-0.8-1-1.5-1.4S131.4,36.8,130.6,36.8z"/>
	<path class="st5" d="M143.5,31.8c0.3,0,0.6,0.1,0.8,0.3c0.2,0.2,0.3,0.4,0.3,0.7s-0.1,0.5-0.3,0.7s-0.5,0.3-0.8,0.3
		s-0.6-0.1-0.8-0.3s-0.3-0.4-0.3-0.7s0.1-0.5,0.3-0.7C142.9,31.9,143.2,31.8,143.5,31.8z M142.8,35.8h1.4v9.6h-1.4V35.8z"/>
	<path class="st5" d="M156.3,36.9l-0.9,0.8c-0.7-0.6-1.4-1-2.1-1c-0.4,0-0.8,0.1-1.1,0.4s-0.5,0.6-0.5,0.9c0,0.3,0.1,0.6,0.4,0.9
		c0.3,0.3,0.8,0.6,1.6,1c1,0.5,1.7,0.9,2.1,1.4c0.4,0.4,0.5,1,0.5,1.5c0,0.8-0.3,1.5-0.9,2c-0.6,0.5-1.4,0.8-2.3,0.8
		c-0.6,0-1.2-0.1-1.7-0.4c-0.6-0.2-1-0.6-1.4-1l0.9-0.9c0.7,0.7,1.4,1.1,2.2,1.1c0.5,0,1-0.2,1.4-0.5s0.6-0.7,0.6-1.1
		c0-0.4-0.1-0.7-0.4-0.9c-0.3-0.3-0.8-0.6-1.7-1s-1.6-0.9-1.9-1.3c-0.3-0.4-0.5-0.9-0.5-1.5c0-0.7,0.3-1.3,0.8-1.8s1.2-0.7,2.1-0.7
		C154.4,35.6,155.4,36,156.3,36.9z"/>
	<path class="st5" d="M164,32.2h1.4v3.6h2.1v1.1h-2.1v8.6H164v-8.6h-1.8v-1.1h1.8V32.2z"/>
	<path class="st5" d="M174.1,31.8c0.3,0,0.6,0.1,0.8,0.3c0.2,0.2,0.3,0.4,0.3,0.7s-0.1,0.5-0.3,0.7s-0.5,0.3-0.8,0.3
		s-0.6-0.1-0.8-0.3s-0.3-0.4-0.3-0.7s0.1-0.5,0.3-0.7C173.6,31.9,173.8,31.8,174.1,31.8z M173.5,35.8h1.4v9.6h-1.4V35.8z"/>
	<path class="st5" d="M191.9,37.8l-1.1,0.6c-0.9-1.1-2.2-1.7-3.8-1.7c-1.3,0-2.3,0.4-3.2,1.1s-1.3,1.7-1.3,2.8c0,0.7,0.2,1.4,0.6,2
		c0.4,0.6,0.9,1.1,1.6,1.4c0.7,0.3,1.4,0.5,2.3,0.5c1.5,0,2.8-0.6,3.8-1.7l1.1,0.6c-0.5,0.7-1.2,1.2-2,1.6c-0.8,0.4-1.8,0.6-2.9,0.6
		c-1.7,0-3-0.5-4.1-1.5s-1.6-2.1-1.6-3.5c0-0.9,0.3-1.8,0.8-2.6s1.2-1.4,2.1-1.9s1.9-0.7,3-0.7c0.7,0,1.4,0.1,2,0.3s1.2,0.4,1.6,0.8
		S191.6,37.3,191.9,37.8z"/>
	<path class="st5" d="M203.9,36.9l-0.9,0.8c-0.7-0.6-1.4-1-2.1-1c-0.4,0-0.8,0.1-1.1,0.4s-0.5,0.6-0.5,0.9c0,0.3,0.1,0.6,0.4,0.9
		c0.3,0.3,0.8,0.6,1.6,1c1,0.5,1.7,0.9,2.1,1.4c0.4,0.4,0.5,1,0.5,1.5c0,0.8-0.3,1.5-0.9,2c-0.6,0.5-1.4,0.8-2.3,0.8
		c-0.6,0-1.2-0.1-1.7-0.4c-0.6-0.2-1-0.6-1.4-1l0.9-0.9c0.7,0.7,1.4,1.1,2.2,1.1c0.5,0,1-0.2,1.4-0.5s0.6-0.7,0.6-1.1
		c0-0.4-0.1-0.7-0.4-0.9c-0.3-0.3-0.8-0.6-1.7-1s-1.6-0.9-1.9-1.3c-0.3-0.4-0.5-0.9-0.5-1.5c0-0.7,0.3-1.3,0.8-1.8s1.2-0.7,2.1-0.7
		C202,35.6,202.9,36,203.9,36.9z"/>
</g>
<line class="st6" x1="95.1" y1="29.3" x2="142.8" y2="29.3"/>
<line class="st6" x1="159.7" y1="29.3" x2="203.4" y2="29.3"/>
<path id="луч_23_" class="st2" d="M51.6,10.9c0.8-0.1,1.7-0.2,2.6-0.2c0.9,0,1.7,0.1,2.6,0.2L54.1,0.7L51.6,10.9z"/>
<path id="луч_22_" class="st5" d="M67.2,36.2c-0.5,0.7-1.1,1.3-1.7,2s-1.3,1.2-2,1.7l9.1,5.4L67.2,36.2z"/>
<path id="луч_21_" class="st2" d="M44.7,39.8c-0.7-0.5-1.3-1.1-2-1.7s-1.2-1.3-1.7-2l-5.4,9.1L44.7,39.8z"/>
<path id="луч_20_" class="st5" d="M63.6,13.7c0.7,0.5,1.3,1.1,2,1.7c0.6,0.6,1.2,1.3,1.7,2l5.4-9.1L63.6,13.7z"/>
<path id="луч_19_" class="st2" d="M41.1,17.3c0.5-0.7,1.1-1.3,1.7-2c0.6-0.6,1.3-1.2,2-1.7l-9.1-5.4L41.1,17.3z"/>
<path id="луч_18_" class="st2" d="M38.3,29.3c-0.1-0.8-0.2-1.7-0.2-2.6s0.1-1.7,0.2-2.6L28,26.8L38.3,29.3z"/>
<path id="луч_17_" class="st5" d="M70,24.2c0.1,0.8,0.2,1.7,0.2,2.6s-0.1,1.7-0.2,2.6l10.2-2.6L70,24.2z"/>
<path id="луч_16_" class="st5" d="M56.7,42.6c-0.8,0.1-1.7,0.2-2.6,0.2c-0.9,0-1.7-0.1-2.6-0.2l2.6,10.2L56.7,42.6z"/>
<path id="правая_внешняя_2_" class="st5" d="M64.6,15.7c2.9,2.8,4.8,6.7,4.8,11.1c0,8.4-6.8,15.2-15.2,15.2
	c-0.9,0-1.8-0.1-2.6-0.2c0,0-1.1-0.3-1.1-1.1C50.4,40.6,54.1,21.9,64.6,15.7z"/>
<path id="левая_внешняя_2_" class="st2" d="M64.4,15.6c-2.7-2.5-6.3-4-10.3-4c-8.4,0-15.2,6.8-15.2,15.2
	c0,5.7,3.2,10.7,7.9,13.3c0,0,0.8,0.2,1-0.4C48.1,39.1,53.2,22.2,64.4,15.6z"/>
<path id="правая_внутреняя_1_" class="st7" d="M64,16.4c2.8,2.6,4.5,6.3,4.5,10.4c0,7.4-5.6,13.5-12.8,14.3
	c0,0-0.7,0.1-0.7-0.8S57.2,23.4,64,16.4z"/>
<path id="левая_внутреняя_1_" class="st7" d="M63.3,15.7c-2.5-2.1-5.7-3.3-9.1-3.3c-7.9,0-14.3,6.4-14.3,14.3
	c0,3.8,1.5,7.3,3.9,9.9c0,0,0.6,0.4,0.9-0.1C45,36,53.8,20.7,63.3,15.7z"/>
</svg>
