<?xml version="1.0" encoding="utf-8"?>
<!-- Generator: Adobe Illustrator 21.0.0, SVG Export Plug-In . SVG Version: 6.00 Build 0)  -->
<svg version="1.1" id="Слой_1" xmlns="http://www.w3.org/2000/svg" xmlns:xlink="http://www.w3.org/1999/xlink" x="0px" y="0px"
	 viewBox="0 0 231.5 68.7" style="enable-background:new 0 0 231.5 68.7;" xml:space="preserve">
<style type="text/css">
	.st0{fill:#00B0FF;}
	.st1{fill:#2A2D47;}
	.st2{fill:none;stroke:#00B0FF;stroke-width:2;stroke-miterlimit:10;}
	.st3{fill:#FFFFFF;}
</style>
<g>
	<path class="st0" d="M85.9,30.5V3.1h0.6l18.2,21v-21h2.7v27.4h-0.6L88.7,9.8v20.7H85.9z"/>
	<path class="st0" d="M112.6,10.2h2.6v9.5c0,2.3,0.1,3.9,0.4,4.8c0.4,1.2,1.1,2.2,2.1,2.9c1.1,0.7,2.3,1.1,3.8,1.1s2.7-0.4,3.7-1.1
		s1.7-1.6,2.1-2.8c0.3-0.8,0.4-2.4,0.4-5v-9.5h2.7V20c0,2.8-0.3,4.9-1,6.3s-1.6,2.5-2.9,3.3s-3,1.2-4.9,1.2s-3.6-0.4-4.9-1.2
		c-1.3-0.8-2.3-1.9-3-3.4c-0.7-1.4-1-3.6-1-6.5L112.6,10.2L112.6,10.2z"/>
	<path class="st0" d="M134.3,10.2h2.7v3c0.8-1.2,1.6-2,2.5-2.6c0.9-0.6,1.8-0.9,2.8-0.9c0.7,0,1.5,0.2,2.3,0.7l-1.4,2.2
		c-0.5-0.2-1-0.4-1.4-0.4c-0.9,0-1.7,0.4-2.5,1.1c-0.8,0.7-1.4,1.8-1.8,3.3c-0.3,1.2-0.5,3.5-0.5,7v6.9h-2.7L134.3,10.2L134.3,10.2z
		"/>
	<path class="st0" d="M145.6,2.4h2.6v28.1h-2.6V2.4z"/>
	<path class="st0" d="M150.7,10.2h2.8l7,15.6l6.8-15.6h2.8L158,37.9h-2.8L159,29L150.7,10.2z"/>
	<path class="st1" d="M191.8,3.1h2.7v18.5c0,2.8-0.2,4.8-0.7,5.9c-0.4,1.1-1.2,2-2.2,2.7s-2.3,1-3.7,1c-1.1,0-2.2-0.2-3.3-0.6
		s-2.3-1.2-3.6-2.3l1.5-2.2c1.4,1,2.6,1.7,3.6,2.1c0.6,0.3,1.2,0.4,1.8,0.4c0.8,0,1.5-0.2,2.1-0.7s1.1-1.1,1.3-1.9
		c0.3-0.8,0.4-2.3,0.4-4.5L191.8,3.1L191.8,3.1z"/>
	<path class="st1" d="M209.6,9.7c3.1,0,5.7,1.1,7.8,3.4c1.9,2.1,2.8,4.5,2.8,7.3s-1,5.3-3,7.4s-4.5,3.2-7.6,3.2s-5.7-1.1-7.6-3.2
		c-2-2.1-3-4.6-3-7.4s0.9-5.2,2.8-7.3C203.9,10.9,206.5,9.7,209.6,9.7z M209.6,12.3c-2.2,0-4,0.8-5.6,2.4s-2.3,3.5-2.3,5.8
		c0,1.5,0.4,2.8,1.1,4.1c0.7,1.3,1.7,2.2,2.9,2.9s2.5,1,4,1c1.4,0,2.8-0.3,4-1s2.2-1.7,2.9-2.9c0.7-1.3,1.1-2.6,1.1-4.1
		c0-2.3-0.8-4.2-2.3-5.8C213.6,13.1,211.7,12.3,209.6,12.3z"/>
	<path class="st1" d="M223.8,2.4h2.6v28.1h-2.6V2.4z"/>
</g>
<g>
	<path class="st1" d="M85.5,44.9h1.7v15.2h6.5v1.6h-8.2V44.9z"/>
	<path class="st1" d="M108.5,49c1.9,0,3.5,0.7,4.8,2.1c1.1,1.3,1.7,2.8,1.7,4.5s-0.6,3.3-1.8,4.6s-2.8,2-4.7,2c-1.9,0-3.5-0.7-4.7-2
		s-1.8-2.8-1.8-4.6c0-1.7,0.6-3.2,1.7-4.5C105,49.7,106.6,49,108.5,49z M108.5,50.5c-1.3,0-2.5,0.5-3.4,1.5s-1.4,2.2-1.4,3.6
		c0,0.9,0.2,1.7,0.7,2.5c0.4,0.8,1,1.4,1.8,1.8c0.7,0.4,1.6,0.6,2.5,0.6s1.7-0.2,2.4-0.6c0.7-0.4,1.3-1,1.8-1.8
		c0.4-0.8,0.7-1.6,0.7-2.5c0-1.4-0.5-2.6-1.4-3.6S109.8,50.5,108.5,50.5z"/>
	<path class="st1" d="M135.3,49.3h1.6v9.9c0,1.8-0.2,3-0.5,3.8c-0.4,1.1-1.1,2-2.2,2.6c-1,0.6-2.3,0.9-3.7,0.9c-1.1,0-2-0.2-2.9-0.5
		s-1.5-0.7-2.1-1.2s-1-1.3-1.5-2.2h1.7c0.5,0.8,1.1,1.4,1.8,1.8c0.8,0.4,1.7,0.6,2.8,0.6s2-0.2,2.8-0.6s1.3-0.9,1.6-1.5
		s0.5-1.6,0.5-3v-0.6c-0.6,0.8-1.3,1.4-2.2,1.8c-0.9,0.4-1.8,0.6-2.8,0.6c-1.1,0-2.2-0.3-3.2-0.9s-1.8-1.3-2.3-2.3s-0.8-2-0.8-3.2
		s0.3-2.2,0.9-3.2s1.4-1.8,2.4-2.4c1-0.6,2.1-0.9,3.2-0.9c0.9,0,1.8,0.2,2.6,0.6s1.6,1,2.3,1.9L135.3,49.3L135.3,49.3z M130.6,50.5
		c-0.9,0-1.8,0.2-2.5,0.7c-0.8,0.4-1.4,1-1.8,1.8s-0.7,1.6-0.7,2.5c0,1.4,0.5,2.5,1.4,3.4s2.1,1.3,3.6,1.3s2.7-0.4,3.6-1.3
		c0.9-0.9,1.3-2.1,1.3-3.5c0-0.9-0.2-1.8-0.6-2.5c-0.4-0.7-1-1.3-1.8-1.7C132.3,50.7,131.5,50.5,130.6,50.5z"/>
	<path class="st1" d="M147.5,44.1c0.4,0,0.7,0.1,0.9,0.4s0.4,0.6,0.4,0.9c0,0.4-0.1,0.7-0.4,0.9s-0.6,0.4-0.9,0.4
		c-0.4,0-0.7-0.1-0.9-0.4c-0.3-0.3-0.4-0.6-0.4-0.9c0-0.4,0.1-0.7,0.4-0.9C146.8,44.3,147.1,44.1,147.5,44.1z M146.7,49.3h1.6v12.5
		h-1.6V49.3z"/>
	<path class="st1" d="M164.5,50.6l-1,1.1c-0.9-0.8-1.7-1.2-2.5-1.2c-0.5,0-1,0.2-1.3,0.5c-0.4,0.3-0.6,0.7-0.6,1.2
		c0,0.4,0.2,0.8,0.5,1.2s1,0.8,1.9,1.3c1.2,0.6,2,1.2,2.4,1.8s0.6,1.2,0.6,2c0,1-0.4,1.9-1.1,2.6c-0.7,0.7-1.6,1.1-2.7,1.1
		c-0.7,0-1.4-0.2-2.1-0.5c-0.7-0.3-1.2-0.7-1.6-1.3l1-1.1c0.8,0.9,1.7,1.4,2.6,1.4c0.6,0,1.2-0.2,1.6-0.6c0.5-0.4,0.7-0.9,0.7-1.5
		c0-0.5-0.1-0.9-0.4-1.2c-0.3-0.4-1-0.8-2-1.3c-1.1-0.6-1.9-1.2-2.3-1.7c-0.4-0.6-0.6-1.2-0.6-1.9c0-0.9,0.3-1.7,1-2.4
		c0.6-0.6,1.5-0.9,2.5-0.9C162.2,49,163.3,49.5,164.5,50.6z"/>
	<path class="st1" d="M175.3,44.6h1.6v4.6h2.5v1.4h-2.5v11.1h-1.6v-11h-2.2v-1.4h2.2V44.6z"/>
	<path class="st1" d="M189,44.1c0.4,0,0.7,0.1,0.9,0.4s0.4,0.6,0.4,0.9c0,0.4-0.1,0.7-0.4,0.9s-0.6,0.4-0.9,0.4
		c-0.4,0-0.7-0.1-0.9-0.4c-0.3-0.3-0.4-0.6-0.4-0.9c0-0.4,0.1-0.7,0.4-0.9C188.3,44.3,188.6,44.1,189,44.1z M188.2,49.3h1.6v12.5
		h-1.6V49.3z"/>
	<path class="st1" d="M211.8,51.9l-1.3,0.8c-1.1-1.5-2.6-2.2-4.5-2.2c-1.5,0-2.8,0.5-3.8,1.5s-1.5,2.2-1.5,3.6
		c0,0.9,0.2,1.8,0.7,2.6s1.1,1.4,1.9,1.9c0.8,0.4,1.7,0.7,2.7,0.7c1.8,0,3.3-0.7,4.5-2.2l1.3,0.8c-0.6,0.9-1.4,1.6-2.4,2.1
		s-2.1,0.7-3.4,0.7c-2,0-3.6-0.6-4.9-1.9c-1.3-1.3-1.9-2.8-1.9-4.6c0-1.2,0.3-2.3,0.9-3.4c0.6-1,1.4-1.8,2.5-2.4
		c1.1-0.6,2.3-0.9,3.6-0.9c0.8,0,1.6,0.1,2.4,0.4c0.8,0.3,1.4,0.6,2,1C211,50.7,211.4,51.2,211.8,51.9z"/>
	<path class="st1" d="M227.7,50.6l-1,1.1c-0.9-0.8-1.7-1.2-2.5-1.2c-0.5,0-1,0.2-1.3,0.5c-0.4,0.3-0.6,0.7-0.6,1.2
		c0,0.4,0.2,0.8,0.5,1.2s1,0.8,1.9,1.3c1.2,0.6,2,1.2,2.4,1.8s0.6,1.2,0.6,2c0,1-0.4,1.9-1.1,2.6c-0.7,0.7-1.6,1.1-2.7,1.1
		c-0.7,0-1.4-0.2-2.1-0.5c-0.7-0.3-1.2-0.7-1.6-1.3l1-1.1c0.8,0.9,1.7,1.4,2.6,1.4c0.6,0,1.2-0.2,1.6-0.6c0.5-0.4,0.7-0.9,0.7-1.5
		c0-0.5-0.1-0.9-0.4-1.2c-0.3-0.4-1-0.8-2-1.3c-1.1-0.6-1.9-1.2-2.3-1.7c-0.4-0.6-0.6-1.2-0.6-1.9c0-0.9,0.3-1.7,1-2.4
		c0.6-0.6,1.5-0.9,2.5-0.9C225.4,49,226.6,49.5,227.7,50.6z"/>
</g>
<line class="st2" x1="85.2" y1="37.7" x2="148" y2="37.7"/>
<line class="st2" x1="165" y1="37.7" x2="226.6" y2="37.7"/>
<path id="луч_23_" class="st0" d="M38,13.5c1.1-0.2,2.2-0.3,3.4-0.3c1.1,0,2.3,0.1,3.4,0.3L41.3,0L38,13.5z"/>
<path id="луч_22_" class="st1" d="M58.5,46.8c-0.7,0.9-1.4,1.8-2.2,2.6s-1.7,1.5-2.6,2.2l11.9,7.1L58.5,46.8z"/>
<path id="луч_21_" class="st0" d="M28.9,51.5c-0.9-0.7-1.8-1.4-2.6-2.2s-1.5-1.7-2.2-2.6l-7.1,12L28.9,51.5z"/>
<path id="луч_20_" class="st1" d="M53.8,17.2c0.9,0.7,1.8,1.4,2.6,2.2s1.5,1.7,2.2,2.6l7.1-12L53.8,17.2z"/>
<path id="луч_19_" class="st0" d="M24.2,21.9c0.7-0.9,1.4-1.8,2.2-2.6s1.7-1.5,2.6-2.2L17,10L24.2,21.9z"/>
<path id="луч_18_" class="st0" d="M20.5,37.7c-0.2-1.1-0.3-2.2-0.3-3.4c0-1.1,0.1-2.3,0.3-3.4L7,34.3L20.5,37.7z"/>
<path id="луч_17_" class="st1" d="M62.2,31c0.2,1.1,0.3,2.2,0.3,3.4c0,1.1-0.1,2.3-0.3,3.4l13.5-3.4L62.2,31z"/>
<path id="луч_16_" class="st1" d="M44.7,55.2c-1.1,0.2-2.2,0.3-3.4,0.3c-1.1,0-2.3-0.1-3.4-0.3l3.4,13.5L44.7,55.2z"/>
<path id="правая_внешняя_2_" class="st1" d="M55.1,19.8c3.9,3.6,6.3,8.8,6.3,14.5c0,11-9,20-20,20
	c-1.2,0-2.4-0.1-3.5-0.3c0,0-1.4-0.4-1.5-1.5C36.4,52.6,41.3,27.9,55.1,19.8z"/>
<path id="левая_внешняя_2_" class="st0" d="M54.9,19.6c-3.6-3.3-8.3-5.3-13.5-5.3c-11,0-20,9-20,20
	c0,7.5,4.2,14.1,10.3,17.5c0,0,1,0.2,1.4-0.5C33.4,50.6,40.1,28.3,54.9,19.6z"/>
<path id="правая_внутреняя_1_" class="st3" d="M54.3,20.6c3.6,3.4,5.9,8.3,5.9,13.7c0,9.7-7.4,17.8-16.9,18.8
	c0,0-0.9,0.1-0.9-1S45.4,29.9,54.3,20.6z"/>
<path id="левая_внутреняя_1_" class="st3" d="M53.4,19.8c-3.3-2.7-7.5-4.3-12-4.3c-10.4,0-18.9,8.4-18.9,18.9
	c0,5,2,9.6,5.2,13c0,0,0.9,0.6,1.2-0.2C29.3,46.4,40.9,26.4,53.4,19.8z"/>
</svg>
