<?xml version="1.0" encoding="utf-8"?>
<!-- Generator: Adobe Illustrator 21.0.0, SVG Export Plug-In . SVG Version: 6.00 Build 0)  -->
<svg version="1.1" id="Слой_1" xmlns="http://www.w3.org/2000/svg" xmlns:xlink="http://www.w3.org/1999/xlink" x="0px" y="0px"
	 viewBox="0 0 233.5 54" style="enable-background:new 0 0 233.5 54;" xml:space="preserve">
<style type="text/css">
	.st0{fill:none;}
	.st1{fill:#00B0FF;}
	.st2{font-family:'CenturyGothic';}
	.st3{font-size:28.9977px;}
	.st4{fill:#2A2D47;}
	.st5{font-size:17.8447px;}
	.st6{letter-spacing:4;}
	.st7{letter-spacing:7;}
	.st8{fill:none;stroke:#00B0FF;stroke-width:2;stroke-miterlimit:10;}
	.st9{fill:#FFFFFF;}
</style>
<rect x="91.8" y="5.8" class="st0" width="127.1" height="23.6"/>
<text transform="matrix(1 0 0 1 91.8398 27.1313)"><tspan x="0" y="0" class="st1 st2 st3">Nurly</tspan><tspan x="66.3" y="0" class="st2 st3"> </tspan><tspan x="73.7" y="0" class="st4 st2 st3">Jol</tspan></text>
<rect x="92.7" y="35.2" class="st0" width="127.1" height="23.6"/>
<text transform="matrix(1 0 0 1 92.7314 48.3667)"><tspan x="0" y="0" class="st4 st2 st5 st6">Logistic</tspan><tspan x="103.6" y="0" class="st4 st2 st5 st7">s</tspan></text>
<line class="st8" x1="94.1" y1="32.3" x2="141.8" y2="32.3"/>
<line class="st8" x1="154.7" y1="32.3" x2="201.6" y2="32.3"/>
<path id="луч_23_" class="st1" d="M50.6,10.9c0.8-0.1,1.7-0.2,2.6-0.2c0.9,0,1.7,0.1,2.6,0.2L53.1,0.7L50.6,10.9z"/>
<path id="луч_22_" class="st4" d="M66.2,36.2c-0.5,0.7-1.1,1.3-1.7,2s-1.3,1.2-2,1.7l9.1,5.4L66.2,36.2z"/>
<path id="луч_21_" class="st1" d="M43.7,39.8c-0.7-0.5-1.3-1.1-2-1.7s-1.2-1.3-1.7-2l-5.4,9.1L43.7,39.8z"/>
<path id="луч_20_" class="st4" d="M62.6,13.7c0.7,0.5,1.3,1.1,2,1.7c0.6,0.6,1.2,1.3,1.7,2l5.4-9.1L62.6,13.7z"/>
<path id="луч_19_" class="st1" d="M40.1,17.3c0.5-0.7,1.1-1.3,1.7-2c0.6-0.6,1.3-1.2,2-1.7l-9.1-5.4L40.1,17.3z"/>
<path id="луч_18_" class="st1" d="M37.3,29.3c-0.1-0.8-0.2-1.7-0.2-2.6s0.1-1.7,0.2-2.6L27,26.8L37.3,29.3z"/>
<path id="луч_17_" class="st4" d="M69,24.2c0.1,0.8,0.2,1.7,0.2,2.6s-0.1,1.7-0.2,2.6l10.2-2.6L69,24.2z"/>
<path id="луч_16_" class="st4" d="M55.7,42.6c-0.8,0.1-1.7,0.2-2.6,0.2c-0.9,0-1.7-0.1-2.6-0.2l2.6,10.2L55.7,42.6z"/>
<path id="правая_внешняя_2_" class="st4" d="M63.6,15.7c2.9,2.8,4.8,6.7,4.8,11.1c0,8.4-6.8,15.2-15.2,15.2
	c-0.9,0-1.8-0.1-2.6-0.2c0,0-1.1-0.3-1.1-1.1C49.4,40.6,53.1,21.9,63.6,15.7z"/>
<path id="левая_внешняя_2_" class="st1" d="M63.4,15.6c-2.7-2.5-6.3-4-10.3-4c-8.4,0-15.2,6.8-15.2,15.2
	c0,5.7,3.2,10.7,7.9,13.3c0,0,0.8,0.2,1-0.4C47.1,39.1,52.2,22.2,63.4,15.6z"/>
<path id="правая_внутреняя_1_" class="st9" d="M63,16.4c2.8,2.6,4.5,6.3,4.5,10.4c0,7.4-5.6,13.5-12.8,14.3
	c0,0-0.7,0.1-0.7-0.8S56.2,23.4,63,16.4z"/>
<path id="левая_внутреняя_1_" class="st9" d="M62.3,15.7c-2.5-2.1-5.7-3.3-9.1-3.3c-7.9,0-14.3,6.4-14.3,14.3
	c0,3.8,1.5,7.3,3.9,9.9c0,0,0.6,0.4,0.9-0.1C44,36,52.8,20.7,62.3,15.7z"/>
</svg>
