<?xml version="1.0" encoding="utf-8"?>
<!-- Generator: Adobe Illustrator 21.0.0, SVG Export Plug-In . SVG Version: 6.00 Build 0)  -->
<svg version="1.1" id="Слой_1" xmlns="http://www.w3.org/2000/svg" xmlns:xlink="http://www.w3.org/1999/xlink" x="0px" y="0px"
	 viewBox="0 0 165 32" style="enable-background:new 0 0 165 32;" xml:space="preserve">
<style type="text/css">
	.st0{enable-background:new    ;}
	.st1{fill:#FFFFFF;}
	.st2{fill:#AAA9A9;}
</style>
<title>Монтажная область 1</title>
<g class="st0">
	<path class="st1" d="M64.8,14.3V1.9h0.3l8.3,9.5V1.9h1.2v12.4h-0.3L66.1,5v9.4L64.8,14.3L64.8,14.3z"/>
	<path class="st1" d="M77.2,5.2h1.2v4.3c0,1.1,0.1,1.8,0.2,2.1c0.2,0.5,0.5,1,1,1.3s1.1,0.5,1.7,0.5c0.7,0,1.2-0.2,1.7-0.5
		s0.8-0.7,1-1.2c0.1-0.4,0.2-1.1,0.2-2.3V5.2h1.2v4.5c0,1.2-0.1,2.2-0.4,2.9c-0.3,0.7-0.7,1.1-1.3,1.5s-1.3,0.5-2.2,0.5
		S79.6,14.4,79,14s-1.1-0.9-1.4-1.5s-0.4-1.6-0.4-2.9V5.2L77.2,5.2z"/>
	<path class="st1" d="M87.4,5.2h1.2v1.4c0.4-0.5,0.7-1,1.1-1.2C90.1,5.2,90.5,5,90.9,5c0.3,0,0.7,0.1,1.1,0.3l-0.6,1
		C91.2,6.1,90.9,6,90.8,6c-0.4,0-0.8,0.2-1.1,0.5C89.3,6.8,89,7.4,88.9,8c-0.1,0.5-0.2,1.6-0.2,3.1v3.1h-1.2L87.4,5.2L87.4,5.2z"/>
	<path class="st1" d="M92.8,1.6H94v12.7h-1.2V1.6z"/>
	<path class="st1" d="M95.4,5.2h1.2l3.1,7.1l3-7.1h1.2l-5.5,12.5h-1.2l1.8-4L95.4,5.2z"/>
</g>
<path id="луч_23_" class="st1" d="M38.8,6.5c0.5-0.1,1-0.1,1.5-0.1s1,0.1,1.5,0.1l-1.6-6.1L38.8,6.5z"/>
<path id="луч_21_" class="st1" d="M34.7,23.6c-0.4-0.3-0.8-0.7-1.2-1c-0.4-0.4-0.7-0.8-1-1.2l-3.2,5.4L34.7,23.6z"/>
<path id="луч_19_" class="st1" d="M32.6,10.3c0.3-0.4,0.7-0.8,1-1.2c0.4-0.4,0.8-0.7,1.2-1l-5.4-3.2L32.6,10.3z"/>
<path id="луч_18_" class="st1" d="M30.9,17.4c-0.1-0.5-0.1-1-0.1-1.5s0.1-1,0.1-1.5L24.8,16L30.9,17.4z"/>
<g>
	<g>
		<g class="st0">
			<path class="st2" d="M112.6,1.9h1.2v8.4c0,1.3-0.1,2.2-0.3,2.7c-0.2,0.5-0.5,0.9-1,1.2s-1,0.5-1.7,0.5c-0.5,0-1-0.1-1.5-0.3
				s-1-0.5-1.6-1l0.7-1c0.7,0.5,1.2,0.8,1.6,1c0.3,0.1,0.5,0.2,0.8,0.2c0.4,0,0.7-0.1,1-0.3s0.5-0.5,0.6-0.8c0.1-0.4,0.2-1,0.2-2.1
				L112.6,1.9L112.6,1.9z"/>
			<path class="st2" d="M121,4.9c1.4,0,2.6,0.5,3.5,1.5c0.8,1,1.2,2,1.2,3.3s-0.5,2.4-1.3,3.3c-0.9,1-2,1.4-3.4,1.4
				s-2.6-0.5-3.4-1.4s-1.3-2.1-1.3-3.3s0.4-2.4,1.2-3.3C118.4,5.5,119.6,4.9,121,4.9z M121,6.1c-1,0-1.8,0.4-2.5,1.1
				s-1.1,1.6-1.1,2.6c0,0.7,0.2,1.3,0.5,1.8s0.8,1,1.3,1.3s1.1,0.5,1.8,0.5s1.2-0.2,1.8-0.5c0.5-0.3,1-0.8,1.3-1.3
				c0.3-0.6,0.5-1.2,0.5-1.8c0-1-0.4-1.9-1.1-2.6C122.8,6.5,121.9,6.1,121,6.1z"/>
			<path class="st2" d="M127.8,1.6h1.2v12.7h-1.2V1.6z"/>
		</g>
		<g class="st0">
			<path class="st2" d="M64.9,19.2h0.8v7H69V27h-4.1V19.2z"/>
			<path class="st2" d="M75.6,21.1c1,0,1.8,0.3,2.4,1c0.6,0.6,0.9,1.2,0.9,2.1c0,0.8-0.3,1.5-0.9,2.1s-1.4,0.9-2.3,0.9
				s-1.7-0.3-2.4-0.9s-1-1.3-1-2.1c0-0.8,0.3-1.5,0.9-2.1C73.8,21.4,74.5,21.1,75.6,21.1z M75.6,21.8c-0.7,0-1.2,0.2-1.7,0.7
				s-0.7,1-0.7,1.7c0,0.4,0.1,0.8,0.4,1.1c0.2,0.4,0.5,0.7,0.9,0.8c0.4,0.2,0.8,0.3,1.2,0.3s0.8-0.1,1.2-0.3
				c0.4-0.2,0.7-0.5,0.9-0.8c0.2-0.4,0.4-0.8,0.4-1.1c0-0.7-0.2-1.2-0.7-1.7C76.8,22.1,76.2,21.8,75.6,21.8z"/>
			<path class="st2" d="M88.1,21.2h0.8v4.6c0,0.8-0.1,1.4-0.2,1.8c-0.2,0.5-0.6,1-1.1,1.2c-0.5,0.3-1.1,0.4-1.9,0.4
				c-0.5,0-1-0.1-1.4-0.2s-0.8-0.3-1.1-0.5s-0.5-0.6-0.7-1h0.9c0.2,0.4,0.5,0.7,0.9,0.8c0.4,0.2,0.8,0.3,1.4,0.3
				c0.5,0,1-0.1,1.4-0.3c0.4-0.2,0.7-0.4,0.8-0.7c0.2-0.3,0.2-0.7,0.2-1.4v-0.3c-0.3,0.4-0.7,0.6-1.1,0.8c-0.4,0.2-0.9,0.3-1.4,0.3
				c-0.6,0-1.1-0.1-1.6-0.4c-0.5-0.2-0.9-0.6-1.2-1.1c-0.3-0.5-0.4-1-0.4-1.5s0.1-1,0.4-1.5s0.7-0.8,1.2-1.1
				c0.5-0.2,1.1-0.4,1.6-0.4s0.9,0.1,1.3,0.2c0.4,0.2,0.8,0.5,1.2,0.9L88.1,21.2L88.1,21.2z M85.7,21.8c-0.5,0-0.9,0.1-1.2,0.3
				c-0.4,0.2-0.7,0.5-0.9,0.8c-0.2,0.4-0.4,0.7-0.4,1.1c0,0.7,0.2,1.1,0.7,1.5s1.1,0.6,1.8,0.6c0.7,0,1.3-0.2,1.8-0.6s0.7-1,0.7-1.6
				c0-0.4-0.1-0.8-0.3-1.1c-0.2-0.4-0.5-0.6-0.9-0.8C86.5,21.8,86.2,21.8,85.7,21.8z"/>
			<path class="st2" d="M93.4,18.9c0.2,0,0.4,0.1,0.5,0.2s0.2,0.2,0.2,0.4c0,0.2-0.1,0.3-0.2,0.4s-0.3,0.2-0.5,0.2S93,20,92.9,19.9
				s-0.2-0.2-0.2-0.4c0-0.2,0.1-0.3,0.2-0.4C93,18.9,93.2,18.9,93.4,18.9z M93,21.2h0.8v5.7H93V21.2z"/>
			<path class="st2" d="M101,21.9l-0.5,0.5c-0.4-0.4-0.8-0.6-1.2-0.6c-0.2,0-0.5,0.1-0.7,0.2c-0.2,0.2-0.3,0.4-0.3,0.5
				c0,0.2,0.1,0.4,0.2,0.5c0.2,0.2,0.5,0.4,1,0.6c0.6,0.3,1,0.5,1.2,0.8c0.2,0.2,0.3,0.6,0.3,0.9c0,0.5-0.2,0.9-0.5,1.2
				c-0.4,0.3-0.8,0.5-1.4,0.5c-0.4,0-0.7-0.1-1-0.2c-0.4-0.1-0.6-0.4-0.8-0.6l0.5-0.5c0.4,0.4,0.8,0.7,1.3,0.7
				c0.3,0,0.6-0.1,0.8-0.3c0.2-0.2,0.4-0.4,0.4-0.7c0-0.2-0.1-0.4-0.2-0.5c-0.2-0.2-0.5-0.4-1-0.6s-1-0.5-1.1-0.8
				c-0.2-0.2-0.3-0.5-0.3-0.9s0.2-0.8,0.5-1.1s0.7-0.4,1.2-0.4C99.8,21.1,100.4,21.4,101,21.9z"/>
			<path class="st2" d="M105.5,19.1h0.8v2.1h1.2v0.7h-1.2V27h-0.8v-5.1h-1.1v-0.7h1.1V19.1z"/>
			<path class="st2" d="M111.5,18.9c0.2,0,0.4,0.1,0.5,0.2s0.2,0.2,0.2,0.4c0,0.2-0.1,0.3-0.2,0.4s-0.3,0.2-0.5,0.2
				s-0.4-0.1-0.5-0.2s-0.2-0.2-0.2-0.4c0-0.2,0.1-0.3,0.2-0.4C111.2,18.9,111.4,18.9,111.5,18.9z M111.2,21.2h0.8v5.7h-0.8V21.2z"/>
			<path class="st2" d="M122.1,22.4l-0.7,0.4c-0.5-0.7-1.3-1-2.3-1c-0.8,0-1.4,0.2-1.9,0.7c-0.5,0.4-0.8,1-0.8,1.7
				c0,0.4,0.1,0.8,0.4,1.2c0.2,0.4,0.5,0.7,1,0.8c0.4,0.2,0.8,0.3,1.4,0.3c0.9,0,1.7-0.4,2.3-1l0.7,0.4c-0.3,0.4-0.7,0.7-1.2,1
				c-0.5,0.2-1.1,0.4-1.7,0.4c-1,0-1.8-0.3-2.4-0.9c-0.7-0.6-1-1.2-1-2.1c0-0.5,0.2-1.1,0.5-1.5s0.7-0.8,1.2-1.1
				c0.5-0.3,1.1-0.4,1.8-0.4c0.4,0,0.8,0.1,1.2,0.2c0.4,0.1,0.7,0.2,1,0.5C121.7,21.9,121.9,22.1,122.1,22.4z"/>
			<path class="st2" d="M129.2,21.9l-0.5,0.5c-0.4-0.4-0.8-0.6-1.2-0.6c-0.2,0-0.5,0.1-0.7,0.2c-0.2,0.2-0.3,0.4-0.3,0.5
				c0,0.2,0.1,0.4,0.2,0.5c0.2,0.2,0.5,0.4,1,0.6c0.6,0.3,1,0.5,1.2,0.8c0.2,0.2,0.3,0.6,0.3,0.9c0,0.5-0.2,0.9-0.5,1.2
				s-0.8,0.5-1.4,0.5c-0.4,0-0.7-0.1-1-0.2c-0.4-0.1-0.6-0.4-0.8-0.6l0.5-0.5c0.4,0.4,0.8,0.7,1.3,0.7c0.3,0,0.6-0.1,0.8-0.3
				c0.2-0.2,0.4-0.4,0.4-0.7c0-0.2-0.1-0.4-0.2-0.5c-0.2-0.2-0.5-0.4-1-0.6s-1-0.5-1.1-0.8c-0.2-0.2-0.3-0.5-0.3-0.9
				s0.2-0.8,0.5-1.1s0.7-0.4,1.2-0.4C128.1,21.1,128.6,21.4,129.2,21.9z"/>
		</g>
		<path id="луч_40_" class="st2" d="M48.1,21.5c-0.3,0.4-0.7,0.8-1,1.2c-0.4,0.4-0.8,0.7-1.2,1l5.4,3.2L48.1,21.5z"/>
		<path id="луч_39_" class="st2" d="M45.9,8.1c0.4,0.3,0.8,0.7,1.2,1c0.4,0.4,0.7,0.8,1,1.2l3.2-5.4L45.9,8.1z"/>
		<path id="луч_38_" class="st2" d="M49.7,14.4c0.1,0.5,0.1,1,0.1,1.5s-0.1,1-0.1,1.5l6.1-1.5L49.7,14.4z"/>
		<path id="луч_37_" class="st2" d="M41.8,25.3c-0.5,0.1-1,0.1-1.5,0.1s-1-0.1-1.5-0.1l1.5,6.1L41.8,25.3z"/>
		<path id="road_9_" class="st2" d="M46.5,9.3c-6.2,3.7-8.4,14.8-8.4,14.8c0,0.5,0.7,0.7,0.7,0.7c0.5,0.1,1,0.1,1.5,0.1c5,0,9-4,9-9
			C49.4,13.3,48.2,11,46.5,9.3z M41.2,24.4c0,0-0.4,0.1-0.4-0.5c0-0.5,1.3-10,5.3-14.2c1.7,1.5,2.7,3.7,2.7,6.2
			C48.8,20.3,45.5,23.9,41.2,24.4z"/>
	</g>
</g>
<path id="road" class="st1" d="M40.3,6.9c-5,0-9,4-9,9c0,3.4,1.9,6.4,4.7,7.9c0,0,0.5,0.1,0.6-0.2c0.2-0.4,3.2-10.4,9.9-14.3
	C44.8,7.8,42.7,6.9,40.3,6.9z M34.7,21.7c-0.2,0.3-0.5,0.1-0.5,0.1c-1.4-1.5-2.3-3.6-2.3-5.9c0-4.7,3.8-8.5,8.5-8.5
	c2,0,3.9,0.7,5.4,2C40.1,12.3,34.9,21.4,34.7,21.7z"/>
<rect x="64.6" y="16.9" class="st1" width="28.3" height="0.8"/>
<rect x="103" y="16.9" class="st1" width="25.9" height="0.8"/>
</svg>
